<?xml version="1.0" encoding="UTF-8"?>
<svg version="1.1" xmlns="http://www.w3.org/2000/svg" width="1888" height="331">
<path d="M0 0 C1.09920273 0.00222061 2.19840546 0.00444122 3.33091736 0.00672913 C4.57212845 0.00680466 5.81333954 0.00688019 7.09216309 0.00695801 C8.45682311 0.01206541 9.82148274 0.01728142 11.18614197 0.02259827 C12.57476755 0.02446251 13.96339379 0.02588638 15.35202026 0.02688599 C19.01319686 0.03071065 22.67433402 0.04054048 26.335495 0.05158997 C30.06890835 0.06180519 33.80232805 0.06638384 37.53575134 0.07142639 C44.86584748 0.08216281 52.19591108 0.0992386 59.52598572 0.12025452 C59.55925602 10.76607355 59.57778096 21.41189082 59.58848572 32.05775452 C59.58934174 32.90253735 59.59019775 33.74732018 59.59107971 34.61770248 C59.62654994 74.64071423 59.33129277 114.66121796 59.02598572 154.68275452 C59.020012 155.46679075 59.01403829 156.25082698 59.00788355 157.05862188 C58.8526942 177.41254404 58.69146768 197.76641341 58.52598572 218.12025452 C45.32598572 218.12025452 32.12598572 218.12025452 18.52598572 218.12025452 C18.52598572 163.34025452 18.52598572 108.56025452 18.52598572 52.12025452 C13.24598572 61.36025452 7.96598572 70.60025452 2.52598572 80.12025452 C-4.47401428 92.12025452 -4.47401428 92.12025452 -7.91542053 98.00306702 C-11.78882532 104.6434982 -15.60346406 111.31722497 -19.41151428 117.99525452 C-27.66567064 132.46975821 -35.99118801 146.90247298 -44.32850647 161.32923889 C-52.35131823 175.21406304 -60.344088 189.11530749 -68.28431702 203.04750061 C-68.91926086 204.16076721 -69.55420471 205.27403381 -70.20838928 206.42103577 C-70.76752014 207.40241516 -71.326651 208.38379456 -71.90272522 209.39491272 C-72.42125061 210.29427551 -72.939776 211.19363831 -73.47401428 212.12025452 C-73.84196106 213.03532776 -74.20990784 213.950401 -74.58900452 214.89320374 C-77.18650907 217.96203374 -79.26428495 217.94450758 -83.16462708 218.29891968 C-84.06723267 218.34953049 -84.96983826 218.4001413 -85.89979553 218.45228577 C-86.83503052 218.51228256 -87.7702655 218.57227936 -88.73384094 218.63409424 C-115.57919135 220.02379525 -115.57919135 220.02379525 -123.61268616 215.25843811 C-128.48900412 210.04009169 -130.63878696 203.50825844 -132.98377991 196.86830139 C-135.32314444 190.6149527 -139.03884491 185.05282298 -142.53868103 179.39857483 C-144.2106045 176.68090696 -145.83662769 173.93706553 -147.46289062 171.19190979 C-152.57870335 162.55732172 -157.79110244 153.98171592 -163.0151825 145.41236877 C-168.7380171 136.02257742 -174.37315917 126.5832545 -179.97401428 117.12025452 C-188.06047587 103.45784155 -196.26101269 89.86833109 -204.53382874 76.31800842 C-207.19698237 71.92868084 -209.83256161 67.52267563 -212.47401428 63.12025452 C-212.80401428 114.27025452 -213.13401428 165.42025452 -213.47401428 218.12025452 C-230.34901428 218.12025452 -230.34901428 218.12025452 -236.72010803 217.90150452 C-237.94141418 217.86089905 -239.16272034 217.82029358 -240.42103577 217.77845764 C-241.91786253 217.72574002 -243.41468858 217.67300222 -244.91151428 217.62025452 C-247.50924609 217.530888 -250.10698321 217.44168802 -252.70472717 217.35267639 C-253.98239456 217.30880798 -255.26006195 217.26493958 -256.57644653 217.21974182 C-257.53264389 217.18691101 -258.48884125 217.1540802 -259.47401428 217.12025452 C-259.69649757 183.32515728 -259.12561873 149.53505975 -258.63979185 115.74459004 C-258.54741825 109.3017082 -258.4588282 102.85877863 -258.37118155 96.41583097 C-258.27423863 89.29793996 -258.17432115 82.18009324 -258.07325554 75.06225967 C-258.03124401 72.09915521 -257.99021774 69.13603996 -257.95013618 66.17290878 C-257.65990822 44.81504502 -257.1369238 23.4697948 -256.47401428 2.12025452 C-248.76237091 1.7924894 -241.05222876 1.48990203 -233.33694458 1.26371002 C-229.74367128 1.15584026 -226.15262999 1.03194092 -222.56141663 0.86854553 C-219.0994845 0.71166198 -215.63870077 0.59982232 -212.17419815 0.51854134 C-210.21555866 0.46099748 -208.25844783 0.35738016 -206.30174255 0.25305176 C-197.6035844 0.10310364 -197.6035844 0.10310364 -194.39073181 2.99620056 C-192.82183789 5.30710613 -191.61702349 7.57536507 -190.47401428 10.12025452 C-189.94856018 11.01389709 -189.42310608 11.90753967 -188.88172913 12.82826233 C-188.4867926 13.569151 -188.09185608 14.31003967 -187.68495178 15.07337952 C-187.22507874 15.92818909 -186.76520569 16.78299866 -186.29139709 17.66371155 C-185.5774176 19.00345032 -185.5774176 19.00345032 -184.84901428 20.37025452 C-180.88948619 27.71080021 -176.87567464 35.0115141 -172.72401428 42.24525452 C-171.99553284 43.51465881 -171.99553284 43.51465881 -171.25233459 44.80970764 C-170.22033795 46.60592531 -169.18776639 48.40181277 -168.15467834 50.19740295 C-164.96159241 55.75051522 -161.77936747 61.30984362 -158.59901428 66.87025452 C-158.26039368 67.46212555 -157.92177307 68.05399658 -157.57289124 68.6638031 C-152.15320019 78.14036812 -146.80068253 87.65305789 -141.47792053 97.1844635 C-136.42440477 106.22740763 -131.29368052 115.22444036 -126.14002991 124.21058655 C-124.26273201 127.48925542 -122.39137936 130.77129327 -120.52088928 134.05384827 C-113.25872826 146.79424328 -105.9662177 159.51318147 -98.47401428 172.12025452 C-91.85539959 160.51680634 -85.30433589 148.88389251 -78.97401428 137.12025452 C-74.78639998 129.34209056 -70.52677064 121.61265756 -66.16151428 113.93275452 C-61.26675894 105.32030357 -56.44063281 96.67222443 -51.66151428 87.99525452 C-51.32680115 87.38761261 -50.99208801 86.7799707 -50.64723206 86.15391541 C-48.93962294 83.053281 -47.2329307 79.95214314 -45.52674866 76.85072327 C-42.15925206 70.72989235 -38.78580032 64.61234453 -35.41151428 58.49525452 C-35.08250122 57.89877106 -34.75348816 57.3022876 -34.414505 56.68772888 C-27.12970791 43.48260933 -19.81559026 30.29390309 -12.47401428 17.12025452 C-11.97659729 16.2274176 -11.4791803 15.33458069 -10.96669006 14.41468811 C-9.67970653 12.1069469 -8.3901464 9.80067662 -7.09901428 7.49525452 C-6.55386169 6.51818542 -6.55386169 6.51818542 -5.99769592 5.52137756 C-2.97720739 0.14471325 -2.97720739 0.14471325 0 0 Z " fill="#000000" transform="translate(1828.4740142822266,-0.1202545166015625)"/>
<path d="M0 0 C1.44849673 -0.00571543 2.89698896 -0.01268419 4.34547424 -0.02079773 C8.24852975 -0.03861589 12.15135905 -0.03758222 16.05444288 -0.03185534 C19.32696293 -0.02874663 22.59944058 -0.03487459 25.87195456 -0.04089409 C33.59973144 -0.05490078 41.32739769 -0.05341059 49.05517578 -0.04199219 C56.99586662 -0.0305176 64.93621943 -0.04458426 72.87686574 -0.07138866 C79.72396718 -0.09362613 86.57096315 -0.10016492 93.41809809 -0.09431225 C97.49458776 -0.09096029 101.57086091 -0.09323921 105.64731979 -0.11056328 C109.48398398 -0.12615927 113.32015193 -0.12193881 117.15679741 -0.10325813 C118.55427018 -0.09960676 119.95178077 -0.10257828 121.34921837 -0.11314392 C137.73811928 -0.22747103 150.8921042 4.16691574 162.90478516 15.40405273 C174.736012 27.73731184 180.92349672 42.86201215 180.79736328 59.95874023 C180.80437256 61.15065979 180.81138184 62.34257935 180.81860352 63.57061768 C180.8330678 66.80224145 180.82985374 70.03319645 180.81708717 73.26480865 C180.80685456 76.67044825 180.81638097 80.07604784 180.82263184 83.48168945 C180.82987876 89.1974268 180.82039886 94.91295641 180.80126953 100.62866211 C180.77950627 107.20671427 180.78655976 113.78427025 180.80857515 120.36231041 C180.82681413 126.0425658 180.82924631 131.72267312 180.81882048 137.40294838 C180.81263185 140.78130838 180.8116202 144.15943631 180.82496643 147.53778076 C180.83519718 151.30864345 180.81953805 155.07857161 180.79736328 158.84936523 C180.80546021 159.94686096 180.81355713 161.04435669 180.82189941 162.17510986 C180.6514913 177.92538416 173.48762785 192.88323731 162.66259766 204.18530273 C153.51523655 212.70284553 142.74275118 218.51042443 130.09555054 218.54449463 C128.82555206 218.55020477 127.55555359 218.55591492 126.24707031 218.5617981 C124.84179697 218.56304339 123.43652352 218.5641685 122.03125 218.56518555 C120.54936602 218.56981564 119.06748322 218.57484056 117.58560181 218.58023071 C113.56050266 218.59334135 109.53542018 218.59979747 105.51030302 218.60424137 C102.9928652 218.60717524 100.47543191 218.61128072 97.95799637 218.61574554 C90.07389102 218.62941913 82.18979606 218.63908555 74.30567968 218.64294744 C65.21941278 218.64742309 56.13329669 218.66494864 47.04707563 218.69394803 C40.01504664 218.71560812 32.98305993 218.72565408 25.95099795 218.72698855 C21.7554746 218.72803381 17.56009303 218.73388143 13.36460495 218.75180817 C9.413231 218.76836307 5.46210427 218.77040865 1.51070786 218.76166916 C0.06682164 218.76090264 -1.37707826 218.76519024 -2.82093048 218.77512741 C-18.44188225 218.87626141 -30.87212203 215.2876194 -42.40771484 204.34155273 C-54.15417689 191.97420627 -60.34972852 178.44699618 -60.25366211 161.41210938 C-60.26227768 160.16181442 -60.27089325 158.91151947 -60.2797699 157.62333679 C-60.2984542 154.22625977 -60.29936974 150.83016767 -60.29044843 147.4331162 C-60.28530031 144.58299244 -60.29266181 141.73295409 -60.2999205 138.88283914 C-60.31685921 132.15228397 -60.31341496 125.42195585 -60.29663086 118.69140625 C-60.27971405 111.77873686 -60.29555112 104.8666992 -60.32785374 97.95409876 C-60.35465719 91.98936048 -60.36179688 86.02481755 -60.35333866 80.06002516 C-60.34844073 76.51056252 -60.3504527 72.96147953 -60.37112617 69.41206551 C-60.39310564 65.4495943 -60.37396346 61.48786898 -60.35131836 57.52539062 C-60.36301056 56.37021942 -60.37470276 55.21504822 -60.38674927 54.02487183 C-60.29253476 45.87627303 -58.31514313 39.68493959 -54.72021484 32.40405273 C-54.16978516 31.26709961 -53.61935547 30.13014648 -53.05224609 28.95874023 C-45.73690251 16.05816004 -35.32923259 6.20631885 -20.93099976 1.83726501 C-13.97060849 -0.01238226 -7.15681918 -0.02576032 0 0 Z M-8.72021484 35.40405273 C-9.28796914 35.94856709 -9.85572344 36.49308144 -10.44068241 37.05409622 C-16.79585658 43.44359745 -20.82425671 53.68991246 -20.86065674 62.69009399 C-20.86636688 63.53938477 -20.87207703 64.38867554 -20.87796021 65.26370239 C-20.87907806 66.18738617 -20.88019592 67.11106995 -20.88134766 68.06274414 C-20.88631256 69.04212952 -20.89127747 70.02151489 -20.89639282 71.03057861 C-20.91100229 74.27226464 -20.91781553 77.51390168 -20.92333984 80.75561523 C-20.92909363 83.01280722 -20.93485133 85.2699992 -20.94061279 87.52719116 C-20.95112025 92.26332832 -20.95696415 96.99944853 -20.96044922 101.7355957 C-20.96592413 107.78801004 -20.98993196 113.84019829 -21.01842117 119.89254189 C-21.03709975 124.55785768 -21.042256 129.22311968 -21.0437851 133.8884697 C-21.04680189 136.11866869 -21.05479736 138.34886695 -21.06797028 140.57902908 C-21.08513483 143.70918906 -21.08312472 146.83880545 -21.07666016 149.96899414 C-21.08587494 150.88053253 -21.09508972 151.79207092 -21.10458374 152.73123169 C-21.02607463 164.94230923 -16.59950988 175.65614153 -8.03271484 184.40405273 C-4.39360375 187.88421415 -1.87268874 189.65007131 3.24954224 189.69166565 C4.78862999 189.71096382 4.78862999 189.71096382 6.35881042 189.73065186 C8.04663383 189.736362 8.04663383 189.736362 9.76855469 189.7421875 C11.54706062 189.75949165 11.54706062 189.75949165 13.36149597 189.77714539 C16.61596554 189.80559623 19.87029611 189.82467073 23.12486124 189.83736157 C25.16070404 189.84545146 27.19652664 189.85563248 29.23235703 189.86637688 C35.6091549 189.89910385 41.98590356 189.92299728 48.36277401 189.93519074 C55.71014755 189.94942451 63.05655703 189.99322373 70.4036113 190.06269222 C76.09040289 190.11459654 81.77692152 190.13937363 87.46394622 190.14401287 C90.85664407 190.14740102 94.24836754 190.16209646 97.64081192 190.20529366 C101.43284965 190.24677732 105.22246106 190.24389398 109.01464844 190.23046875 C110.12771866 190.25249359 111.24078888 190.27451843 112.3875885 190.29721069 C120.29885904 190.20229638 124.71031554 188.00644361 130.27978516 182.40405273 C138.91153535 172.01669233 141.42336647 160.45041981 141.44091797 147.28442383 C141.44588287 146.38598755 141.45084778 145.48755127 141.45596313 144.56188965 C141.47052274 141.60041526 141.47737735 138.63899448 141.48291016 135.67749023 C141.48573753 134.66090961 141.48856491 133.64432899 141.49147797 132.5969429 C141.50644777 127.21444694 141.51569043 121.83197761 141.52001953 116.44946289 C141.52549258 110.91519718 141.54950242 105.38117892 141.57799149 99.84699059 C141.59670603 95.5693391 141.6018282 91.2917461 141.60335541 87.01405716 C141.60636393 84.97530392 141.61433088 82.93655126 141.62754059 80.89783859 C141.72462652 64.75877137 140.39492132 51.584981 131.52978516 37.65405273 C125.47651854 31.60078612 120.2006549 28.73419015 111.5700531 28.59088135 C109.94028282 28.60909943 109.94028282 28.60909943 108.27758789 28.62768555 C107.10894196 28.61717163 105.94029602 28.60665771 104.73623657 28.5958252 C100.89473122 28.56953716 97.05489946 28.58685807 93.21337891 28.60717773 C90.53253642 28.60313323 87.85174371 28.59731616 85.1709137 28.58978271 C79.56159511 28.57889773 73.95275208 28.59317173 68.34350586 28.62182617 C61.87485 28.65449096 55.40732865 28.64388416 48.93870014 28.61086774 C43.36551778 28.58356961 37.79267534 28.579831 32.21944767 28.59549975 C28.89916006 28.604814 25.57951727 28.60382789 22.25924492 28.58628082 C18.55625087 28.57100305 14.85542115 28.59432237 11.15258789 28.62768555 C10.06405014 28.61554016 8.97551239 28.60339478 7.85398865 28.59088135 C0.57896255 28.71201642 -3.49026778 30.34429682 -8.72021484 35.40405273 Z " fill="#000000" transform="translate(1274.72021484375,-0.404052734375)"/>
<path d="M0 0 C64.35 0 128.7 0 195 0 C195 10.56 195 21.12 195 32 C143.85 32 92.7 32 40 32 C40 51.47 40 70.94 40 91 C87.85 91 135.7 91 185 91 C185 102.22 185 113.44 185 125 C137.15 125 89.3 125 40 125 C40 143.81 40 162.62 40 182 C91.15 182 142.3 182 195 182 C195 192.56 195 203.12 195 214 C169.72284397 214.15352972 144.44566327 214.30177825 119.1684351 214.4429636 C107.4326662 214.50864748 95.69691379 214.5762213 83.96118164 214.64819336 C73.73630097 214.71089504 63.51140716 214.77010267 53.2864818 214.82505554 C47.86888142 214.8542955 42.45130424 214.88532506 37.03373909 214.92053413 C31.940839 214.9535781 26.84793474 214.98197164 21.75498772 215.00670624 C19.87999342 215.01664905 18.00500747 215.02833124 16.1300354 215.04183006 C13.58177077 215.05992324 11.03355071 215.07191468 8.48524475 215.08229065 C7.73331362 215.08909444 6.9813825 215.09589823 6.20666558 215.10290819 C4.47077563 215.10673036 2.73488728 215.05911529 1 215 C-0.81408636 213.18591364 -0.12264895 210.68457297 -0.12908131 208.26987213 C-0.12616847 207.44012204 -0.12325563 206.61037194 -0.12025452 205.75547791 C-0.12110894 204.88074328 -0.12196337 204.00600865 -0.12284368 203.10476691 C-0.12450117 200.15047207 -0.11897273 197.19623303 -0.11352539 194.24194336 C-0.11324355 192.1334483 -0.11340119 190.02495314 -0.1139679 187.91645813 C-0.114256 182.17289034 -0.10835726 176.42934324 -0.10139394 170.68578029 C-0.09516246 164.69063212 -0.09455677 158.69548354 -0.09336853 152.70033264 C-0.0902546 141.33891904 -0.08204039 129.977515 -0.07201904 118.61610562 C-0.05877511 103.26960415 -0.05335849 87.92310009 -0.04751682 72.57659435 C-0.03810054 48.38438906 -0.01818203 24.19220397 0 0 Z " fill="#000000" transform="translate(0,2)"/>
<path d="M0 0 C1.27696747 -0.0071553 2.55393494 -0.01431061 3.86959839 -0.02168274 C5.28272986 -0.02452286 6.69586159 -0.02723461 8.10899353 -0.02983093 C9.59910744 -0.03609844 11.08921979 -0.0427455 12.57933044 -0.04974365 C17.47193825 -0.07075832 22.36454626 -0.08114599 27.25718689 -0.09111023 C28.94464573 -0.09515924 30.6321044 -0.0992762 32.31956291 -0.10346031 C40.25118777 -0.12250902 48.18280337 -0.13673877 56.1144467 -0.14507228 C65.25281799 -0.15483341 74.39094634 -0.18112477 83.52923208 -0.22157317 C90.60288887 -0.25180192 97.67647631 -0.26654768 104.7501964 -0.26985329 C108.96983564 -0.27219674 113.18921526 -0.28106432 117.40878487 -0.30631447 C121.3840152 -0.32971788 125.35881725 -0.33377966 129.33409882 -0.32355309 C130.78563556 -0.32306052 132.23719427 -0.32929769 133.68866539 -0.34310913 C145.5618779 -0.44968034 155.36169927 1.24616729 164.65171814 9.03779602 C176.10278581 20.36302779 180.88757199 34.05360943 181.01499939 49.91279602 C181.01790589 52.02339317 181.00891798 54.13333353 180.99034119 56.24385071 C180.97194659 58.40705552 180.96983313 60.56983312 180.97007751 62.73310852 C180.94909582 68.68404733 180.76812001 74.24563478 179.78453064 80.14717102 C166.58453064 80.14717102 153.38453064 80.14717102 139.78453064 80.14717102 C139.59703064 64.27217102 139.59703064 64.27217102 139.57676697 59.3273468 C139.37933057 50.09365967 138.58291359 42.15771672 131.91270447 35.19258118 C127.8370658 31.4546399 124.65590869 30.03207997 119.0737915 29.98654175 C117.62088463 29.97147331 117.62088463 29.97147331 116.1386261 29.95610046 C115.07729462 29.95026947 114.01596313 29.94443848 112.92247009 29.93843079 C111.24396721 29.92375511 111.24396721 29.92375511 109.53155518 29.90878296 C105.82031955 29.87881575 102.10911999 29.85743943 98.39781189 29.83857727 C97.13077108 29.83200544 95.86373028 29.82543362 94.5582943 29.81866264 C89.2318944 29.7927735 83.90550885 29.7692855 78.57906818 29.7541666 C70.95829643 29.73227846 63.33823082 29.69034295 55.71774131 29.62072903 C49.70508351 29.56767791 43.69274966 29.5476723 37.67984581 29.53896904 C35.12697561 29.53040857 32.57411818 29.51157622 30.02140236 29.48222542 C26.44489825 29.44331835 22.87022933 29.44227652 19.29356384 29.45014954 C18.24235352 29.43014893 17.19114319 29.41014832 16.108078 29.38954163 C8.95581408 29.46008978 4.91891095 31.15545335 -0.21546936 36.14717102 C-12.35686199 49.09653403 -11.8191078 65.25510217 -11.74671936 81.83467102 C-11.74941982 84.0269742 -11.75330683 86.2192762 -11.75831604 88.41157532 C-11.76418497 92.9872945 -11.75573242 97.56269954 -11.73695374 102.13838196 C-11.71416614 107.9718019 -11.72730324 113.80448542 -11.75124359 119.63787842 C-11.76577216 124.15922994 -11.76106332 128.68040997 -11.75073242 133.20176697 C-11.74808461 135.35132436 -11.75126548 137.50089787 -11.76065063 139.6504364 C-11.81235554 154.8171599 -11.57318825 168.97746348 -1.21546936 181.14717102 C3.10670551 185.41520591 6.20298158 188.26038761 12.41297913 188.30107117 C13.87644524 188.31397186 13.87644524 188.31397186 15.36947632 188.32713318 C16.44375381 188.33139313 17.51803131 188.33565308 18.62486267 188.34004211 C20.31777687 188.35230835 20.31777687 188.35230835 22.04489136 188.36482239 C25.7940365 188.38971084 29.54314365 188.40620288 33.29234314 188.42060852 C35.2108288 188.42859404 35.2108288 188.42859404 37.16807175 188.43674088 C42.54504677 188.45797983 47.92200847 188.47710833 53.29901314 188.48836327 C60.99584533 188.50458098 68.69217095 188.53769897 76.38881218 188.59476411 C82.45859032 188.6382254 88.52817074 188.65411785 94.59809494 188.66049576 C97.17606584 188.66721191 99.75402928 188.68244322 102.33189774 188.70638657 C105.94426582 188.73801905 109.55536107 188.73807656 113.16783142 188.73066711 C114.22996353 188.74707245 115.29209564 188.76347778 116.38641357 188.78038025 C123.07723426 188.72430576 127.65292089 187.58273523 132.78453064 183.14717102 C137.71429549 177.04983028 139.06981861 171.04436794 139.19859314 163.34248352 C139.21795929 162.61850372 139.23732544 161.89452393 139.25727844 161.14860535 C139.3166295 158.85657704 139.36327942 156.56449728 139.40953064 154.27217102 C139.44775151 152.70965021 139.48680558 151.14714954 139.52671814 149.58467102 C139.62229371 145.77233637 139.7064867 141.95990322 139.78453064 138.14717102 C145.15968997 138.12249343 150.53481649 138.10432174 155.91001892 138.09223938 C157.73945185 138.08720365 159.56888073 138.08037475 161.39830017 138.07173157 C164.02444962 138.05963278 166.65054596 138.05393519 169.27671814 138.04951477 C170.09759918 138.04435349 170.91848022 138.0391922 171.76423645 138.03387451 C177.55678723 138.03329931 177.55678723 138.03329931 179.78453064 139.14717102 C184.85338321 156.84048874 182.07568374 182.83941901 173.47203064 198.70967102 C167.70729431 207.7163098 160.43806403 214.38669346 150.01789856 217.71072674 C147.14699097 218.27175889 144.42617878 218.28321363 141.49986267 218.29434204 C140.20751205 218.30149734 138.91516144 218.30865265 137.58364868 218.31602478 C136.15321374 218.31886493 134.72277854 218.32157667 133.29234314 218.32417297 C131.78414759 218.33044044 130.27595357 218.3370875 128.76776123 218.34408569 C123.81502858 218.36510296 118.86229573 218.3754891 113.90953064 218.38545227 C112.20104456 218.38950135 110.49255863 218.39361832 108.78407288 218.39780235 C100.75259988 218.41685258 92.72113605 218.43108134 84.68964481 218.43941432 C75.43865378 218.44917238 66.18790293 218.47545507 56.93699646 218.51591522 C49.77500209 218.54615659 42.61307623 218.56089096 35.45101929 218.56419533 C31.17937046 218.56653759 26.90797826 218.57538919 22.63639832 218.60065651 C18.61109915 218.62408174 14.58622291 218.62811307 10.56087303 218.61789513 C9.09201837 218.61740307 7.62314186 218.62362498 6.15435219 218.63745117 C-9.75778009 218.77872554 -22.5982626 214.56599133 -34.34046936 203.64717102 C-45.77236817 191.69400638 -51.84335042 176.80671928 -51.74891663 160.35469055 C-51.76183998 158.51091827 -51.76183998 158.51091827 -51.77502441 156.62989807 C-51.79370622 153.29059737 -51.79462481 149.95229888 -51.78570294 146.61302423 C-51.78055312 143.81021547 -51.78791784 141.00749348 -51.79517502 138.20469368 C-51.81211326 131.58436641 -51.80867078 124.96426996 -51.79188538 118.34394836 C-51.77497656 111.54831037 -51.79079471 104.75331537 -51.82310826 97.95774758 C-51.84993044 92.09150589 -51.85704618 86.2254628 -51.84859318 80.35916603 C-51.84369966 76.86947276 -51.84568226 73.38016567 -51.86638069 69.890522 C-51.88839699 65.99291199 -51.86919716 62.09605795 -51.84657288 58.19844055 C-51.85826508 57.0655661 -51.86995728 55.93269165 -51.88200378 54.76548767 C-51.69944577 39.1990207 -44.10063438 25.62539029 -33.62953186 14.47138977 C-26.71016837 7.80954304 -19.38946372 3.87299043 -10.21546936 1.14717102 C-9.63322885 0.97022107 -9.05098833 0.79327112 -8.45110416 0.61095905 C-5.59826576 0.01913059 -2.91472415 0.0112186 0 0 Z " fill="#000000" transform="translate(919.2154693603516,-0.1471710205078125)"/>
<path d="M0 0 C0.86825912 0.00222061 1.73651825 0.00444122 2.63108826 0.00672913 C3.61202957 0.00680466 4.59297089 0.00688019 5.6036377 0.00695801 C6.6702916 0.01211929 7.7369455 0.01728058 8.83592224 0.02259827 C10.46520912 0.02472069 10.46520912 0.02472069 12.12741089 0.02688599 C15.61230674 0.03250403 19.09713941 0.04505959 22.58201599 0.05775452 C24.93813486 0.06276719 27.29425473 0.0673305 29.65037537 0.07142639 C35.44011063 0.08247933 41.2298088 0.09923501 47.01951599 0.12025452 C45.68884578 3.62682292 44.59996336 5.88016232 41.83201599 8.43275452 C38.65807876 11.46926353 35.7603792 14.63755615 32.89451599 17.96400452 C30.84592506 20.31988409 28.74748598 22.62532912 26.64451599 24.93275452 C23.59092732 28.30966434 20.67522394 31.75242584 17.83201599 35.30775452 C12.92546868 41.37842114 7.58750982 47.01094366 2.23826599 52.69056702 C-1.71364418 56.88834374 -5.50394173 61.20315957 -9.23487854 65.59779358 C-15.29955862 72.73890698 -21.43554946 79.77743467 -27.81983948 86.63539124 C-31.07187482 90.128877 -34.27076863 93.65495729 -37.37501526 97.28041077 C-38.55060968 98.62762481 -39.76177427 99.94402269 -40.99220276 101.24134827 C-41.64833557 101.94388733 -42.30446838 102.64642639 -42.98048401 103.37025452 C-43.57860901 103.99416077 -44.17673401 104.61806702 -44.79298401 105.26087952 C-46.16721896 107.02667538 -46.16721896 107.02667538 -45.91798401 109.06947327 C-44.68342367 111.77007401 -43.02481635 113.52839735 -40.98048401 115.68275452 C-37.68085122 119.23821327 -34.52386141 122.84282306 -31.48048401 126.62025452 C-28.57235021 130.21503102 -25.59507069 133.7028608 -22.48048401 137.12025452 C-18.65877538 141.31754485 -15.06574211 145.65735682 -11.49610901 150.06947327 C-8.55123747 153.64081593 -5.52340274 157.13248002 -2.48048401 160.62025452 C1.34269992 165.00236413 5.11105943 169.41085104 8.76951599 173.93275452 C11.59439438 177.4226134 14.49669178 180.80035965 17.51951599 184.12025452 C21.3496849 188.32748669 24.95992808 192.67217409 28.53514099 197.09681702 C32.01742894 201.33469574 35.60648772 205.47853651 39.21018982 209.61341858 C43.01951599 214.01332354 43.01951599 214.01332354 43.01951599 215.12025452 C36.13862597 215.5038244 29.26052439 215.76451082 22.37132263 215.94422913 C20.03401252 216.01919975 17.69739503 216.12122814 15.36253357 216.25184631 C-5.09258061 217.36662599 -5.09258061 217.36662599 -11.33424377 211.91004944 C-14.22052709 208.84092074 -16.59141479 205.53521492 -18.80947876 201.96014404 C-20.49913366 199.30534949 -22.50703667 196.95168629 -24.54298401 194.55775452 C-25.24552307 193.69021545 -25.94806213 192.82267639 -26.67189026 191.92884827 C-29.39392586 188.61726858 -32.1819154 185.36715451 -34.98048401 182.12025452 C-39.29987987 177.10715393 -43.53145837 172.03487741 -47.70314026 166.89759827 C-50.26252455 163.77629084 -52.86642192 160.69575422 -55.48048401 157.62025452 C-58.8533199 153.65121909 -62.19225046 149.6600843 -65.48048401 145.62025452 C-68.73270171 141.62731819 -72.02617716 137.67382489 -75.35548401 133.74525452 C-75.8118927 133.20634583 -76.26830139 132.66743713 -76.73854065 132.11219788 C-79.14580183 129.2733073 -81.56109478 126.44156383 -83.98439026 123.61634827 C-84.4756842 123.04126526 -84.96697815 122.46618225 -85.47315979 121.87367249 C-86.40499819 120.78311609 -87.33938463 119.69472929 -88.27687073 118.60902405 C-91.13707077 115.25646794 -93.60429623 111.8196095 -95.98048401 108.12025452 C-91.18322185 102.07521963 -86.25442253 96.24965447 -80.98048401 90.62025452 C-77.33156121 86.72451977 -73.82349898 82.78691086 -70.48048401 78.62025452 C-66.6605439 73.85916974 -62.59109582 69.40752427 -58.42189026 64.95619202 C-55.30479847 61.60908582 -52.34467288 58.19011311 -49.48048401 54.62025452 C-45.6605439 49.85916974 -41.59109582 45.40752427 -37.42189026 40.95619202 C-34.30479847 37.60908582 -31.34467288 34.19011311 -28.48048401 30.62025452 C-24.66804804 25.86852273 -20.607854 21.42445466 -16.44606018 16.9825592 C-12.2996997 12.53111311 -8.43209353 7.91397306 -4.62501526 3.16712952 C-2.18712999 0.13280201 -2.18712999 0.13280201 0 0 Z " fill="#000000" transform="translate(548.9804840087891,0.8797454833984375)"/>
<path d="M0 0 C6.77574617 -0.30631251 13.54968857 -0.51521701 20.33081055 -0.65917969 C22.63292123 -0.71923054 24.93457987 -0.8009054 27.23510742 -0.90527344 C47.39779262 -1.7965384 47.39779262 -1.7965384 52.87060547 2.53344727 C55.73626692 5.37115473 57.8612724 8.58533452 60 12 C61.47816304 13.8303525 62.97506231 15.64593049 64.5 17.4375 C65.221875 18.33339844 65.94375 19.22929687 66.6875 20.15234375 C69.24866847 23.30621505 71.86727297 26.40590937 74.5 29.5 C78.62136492 34.34929246 82.66992073 39.2516169 86.6875 44.1875 C89.7243277 47.8809391 92.81960955 51.52298486 95.91625977 55.16625977 C98.7954532 58.55954109 101.63204237 61.98267786 104.4375 65.4375 C107.89274609 69.68392946 111.42710949 73.85284488 115 78 C122.88546132 87.15767062 130.47356622 96.54581479 138 106 C136.5528407 110.69676851 133.78937375 113.677714 130.4375 117.125 C126.6290395 121.13797211 122.9569958 125.17399791 119.5 129.5 C115.16072656 134.90436782 110.49603585 139.94955123 105.7734375 145.015625 C101.46894486 149.63353761 97.35687595 154.40761607 93.26171875 159.2109375 C92.23716908 160.41162041 91.21242354 161.61213621 90.1875 162.8125 C89.67018311 163.41868164 89.15286621 164.02486328 88.61987305 164.64941406 C85.41497771 168.3907082 82.14790722 172.06115383 78.8125 175.6875 C75.62263156 179.16136309 72.57951106 182.69910025 69.625 186.375 C65.78632043 191.13768032 61.72991811 195.63232642 57.51220703 200.05810547 C57.04282715 200.55584473 56.57344727 201.05358398 56.08984375 201.56640625 C55.32293213 202.34322754 55.32293213 202.34322754 54.54052734 203.13574219 C52.86776195 205.00854389 52.86776195 205.00854389 51.74462891 207.60644531 C49.80655811 211.11698356 48.40203831 212.80629443 45 215 C36.69448399 216.74416557 27.9207555 215.93330343 19.5 215.625 C17.1276974 215.57480796 14.75529341 215.52918609 12.3828125 215.48828125 C6.58632132 215.37840129 0.79363044 215.21137989 -5 215 C-0.82697741 208.59686685 -0.82697741 208.59686685 1.76953125 205.8515625 C2.50852661 205.0622937 2.50852661 205.0622937 3.26245117 204.25708008 C3.77396729 203.71849365 4.2854834 203.17990723 4.8125 202.625 C5.88878597 201.47597664 6.96431107 200.32624009 8.0390625 199.17578125 C8.80911621 198.35327881 8.80911621 198.35327881 9.59472656 197.51416016 C11.88919506 195.04190623 14.09590608 192.49720192 16.30078125 189.9453125 C18.29406428 187.6633471 20.33493027 185.42771426 22.375 183.1875 C25.42858867 179.81059018 28.34429205 176.36782868 31.1875 172.8125 C36.09404731 166.74183338 41.43200617 161.10931085 46.78125 155.4296875 C50.73316017 151.23191078 54.52345773 146.91709495 58.25439453 142.52246094 C63.83345116 135.95316536 69.4454171 129.43997306 75.3125 123.125 C75.81128662 122.58665527 76.31007324 122.04831055 76.82397461 121.49365234 C78.97734666 119.17153652 81.13639053 116.85530142 83.30859375 114.55078125 C83.94925781 113.85339844 84.58992188 113.15601562 85.25 112.4375 C86.06210937 111.56931641 86.06210937 111.56931641 86.890625 110.68359375 C88.36681418 108.77935979 88.36681418 108.77935979 88 105 C86.97282128 103.2762505 86.97282128 103.2762505 85.47265625 101.71484375 C84.9322168 101.10729248 84.39177734 100.49974121 83.83496094 99.8737793 C83.25004883 99.23480713 82.66513672 98.59583496 82.0625 97.9375 C80.85941872 96.58966383 79.65760147 95.24069835 78.45703125 93.890625 C77.86486816 93.22869141 77.27270508 92.56675781 76.66259766 91.88476562 C74.45085633 89.37747589 72.34520905 86.79255566 70.25 84.1875 C67.42512161 80.69764112 64.52282421 77.31989486 61.5 74 C58.47717579 70.68010514 55.57487839 67.30235888 52.75 63.8125 C48.58915231 58.67305572 44.28265511 53.67673848 39.94067383 48.69091797 C35.95222759 44.10800359 32.01025768 39.48908427 28.09423828 34.84423828 C24.74928377 30.87899521 21.37956752 26.93576764 18 23 C17.00382559 21.83730868 16.00773169 20.67454839 15.01171875 19.51171875 C12.95732426 17.11369473 10.89607966 14.72174769 8.83203125 12.33203125 C7.82531967 11.15902678 6.81880189 9.98585596 5.8125 8.8125 C5.10770508 8.00135742 5.10770508 8.00135742 4.38867188 7.17382812 C2.33856989 4.77438141 1.00969319 3.02907956 0 0 Z " fill="#000000" transform="translate(314,2)"/>
<path d="M0 0 C13.2 0 26.4 0 40 0 C40 70.62 40 141.24 40 214 C26.8 214 13.6 214 0 214 C0 143.38 0 72.76 0 0 Z " fill="#000000" transform="translate(714,2)"/>
<path d="M0 0 C1.24652344 -0.01675781 2.49304687 -0.03351563 3.77734375 -0.05078125 C7.0625 0.3125 7.0625 0.3125 8.59912109 1.37939453 C10.72040724 4.18158734 11.67614753 7.30490394 12.76171875 10.60546875 C13.0016304 11.31149734 13.24154205 12.01752594 13.48872375 12.74494934 C14.25081397 14.99392043 15.00053344 17.24679452 15.75 19.5 C16.26546495 21.0282686 16.78173187 22.55626696 17.29882812 24.08398438 C18.56270244 27.82375421 19.81550039 31.56707133 21.0625 35.3125 C21.38001221 34.42989502 21.69752441 33.54729004 22.0246582 32.63793945 C23.21138523 29.34700668 24.40281266 26.05785461 25.59741211 22.76977539 C26.11231207 21.34955682 26.62535948 19.92866513 27.13647461 18.50708008 C27.87381256 16.45732365 28.61790077 14.41012467 29.36328125 12.36328125 C29.80841064 11.13262939 30.25354004 9.90197754 30.7121582 8.6340332 C31.94716726 5.59619227 33.12278335 2.95611129 35.0625 0.3125 C38.34765625 -0.24609375 38.34765625 -0.24609375 42.125 -0.125 C43.37410156 -0.10308594 44.62320312 -0.08117187 45.91015625 -0.05859375 C49.0625 0.3125 49.0625 0.3125 51.0625 2.3125 C51.32319641 4.43774414 51.32319641 4.43774414 51.3371582 7.09765625 C51.35145622 8.58930298 51.35145622 8.58930298 51.36604309 10.11108398 C51.36513168 11.18817627 51.36422028 12.26526855 51.36328125 13.375 C51.36756638 14.477229 51.3718515 15.57945801 51.37626648 16.71508789 C51.38201699 19.04865837 51.38250477 21.38224677 51.37817383 23.71582031 C51.37501294 27.29783498 51.39846815 30.87902499 51.42382812 34.4609375 C51.42610084 36.72395729 51.42680475 38.9869793 51.42578125 41.25 C51.434991 42.32709229 51.44420074 43.40418457 51.45368958 44.51391602 C51.44746078 45.50834717 51.44123199 46.50277832 51.43481445 47.52734375 C51.43544388 48.40511475 51.4360733 49.28288574 51.4367218 50.18725586 C51.25148201 51.23925171 51.25148201 51.23925171 51.0625 52.3125 C48.0625 54.3125 48.0625 54.3125 44.4375 54 C41.0625 53.3125 41.0625 53.3125 40.0625 52.3125 C39.90246512 49.64823315 39.80307111 47.00689572 39.74609375 44.33984375 C39.72531265 43.54220108 39.70453156 42.74455841 39.68312073 41.92274475 C39.61753842 39.36525389 39.55870033 36.8076572 39.5 34.25 C39.45682301 32.52017118 39.41320899 30.79035321 39.36914062 29.06054688 C39.26184828 24.8113074 39.16060574 20.5619611 39.0625 16.3125 C38.67916504 17.42810303 38.29583008 18.54370605 37.90087891 19.69311523 C36.48070829 23.8198821 35.05092329 27.94326241 33.61816406 32.06567383 C32.99865902 33.85252008 32.38178768 35.64028165 31.76757812 37.42895508 C30.88577165 39.9954386 29.99463719 42.55851303 29.1015625 45.12109375 C28.82752594 45.9252623 28.55348938 46.72943085 28.27114868 47.55796814 C26.29024341 53.19862829 26.29024341 53.19862829 24.0625 54.3125 C20.67799825 54.68038063 18.808087 54.87718576 16.04199219 52.78222656 C13.50400531 49.61569039 12.42868864 46.30754336 11.265625 42.484375 C11.0271283 41.73536926 10.78863159 40.98636353 10.54290771 40.21466064 C9.78780632 37.83409465 9.04997167 35.44857924 8.3125 33.0625 C7.8019135 31.44235107 7.2902068 29.82255472 6.77734375 28.203125 C5.52605275 24.24354897 4.29021362 20.2794467 3.0625 16.3125 C3.04791748 17.39257324 3.03333496 18.47264648 3.01831055 19.58544922 C2.96042454 23.58513838 2.88319227 27.58425876 2.80004883 31.58349609 C2.76675357 33.31582421 2.73873603 35.048262 2.71606445 36.78076172 C2.68260193 39.26838007 2.63029342 41.75498904 2.57421875 44.2421875 C2.56463387 45.40788773 2.56463387 45.40788773 2.55485535 46.59713745 C2.49487305 48.78076172 2.49487305 48.78076172 2.0625 52.3125 C-2.1170645 55.09887633 -4.08418677 54.10812512 -8.9375 53.3125 C-8.98808332 46.0859678 -9.02318412 38.85948101 -9.04736328 31.6328125 C-9.05743983 29.17283421 -9.07110131 26.71286794 -9.08837891 24.25292969 C-9.11255461 20.72327715 -9.1239664 17.19378253 -9.1328125 13.6640625 C-9.14313507 12.55882233 -9.15345764 11.45358215 -9.16409302 10.31484985 C-9.16424408 9.29394257 -9.16439514 8.27303528 -9.16455078 7.22119141 C-9.168992 6.31962311 -9.17343323 5.41805481 -9.17800903 4.48916626 C-8.58903695 -0.8411768 -4.34377105 0.01344821 0 0 Z " fill="#000000" transform="translate(1190.9375,276.6875)"/>
<path d="M0 0 C1.24652344 -0.01675781 2.49304687 -0.03351563 3.77734375 -0.05078125 C7.0625 0.3125 7.0625 0.3125 8.59912109 1.37939453 C10.72040724 4.18158734 11.67614753 7.30490394 12.76171875 10.60546875 C13.0016304 11.31149734 13.24154205 12.01752594 13.48872375 12.74494934 C14.25081397 14.99392043 15.00053344 17.24679452 15.75 19.5 C16.26546495 21.0282686 16.78173187 22.55626696 17.29882812 24.08398438 C18.56270244 27.82375421 19.81550039 31.56707133 21.0625 35.3125 C21.38001221 34.42989502 21.69752441 33.54729004 22.0246582 32.63793945 C23.21138523 29.34700668 24.40281266 26.05785461 25.59741211 22.76977539 C26.11231207 21.34955682 26.62535948 19.92866513 27.13647461 18.50708008 C27.87381256 16.45732365 28.61790077 14.41012467 29.36328125 12.36328125 C29.80841064 11.13262939 30.25354004 9.90197754 30.7121582 8.6340332 C31.94716726 5.59619227 33.12278335 2.95611129 35.0625 0.3125 C38.34765625 -0.24609375 38.34765625 -0.24609375 42.125 -0.125 C43.37410156 -0.10308594 44.62320312 -0.08117187 45.91015625 -0.05859375 C49.0625 0.3125 49.0625 0.3125 51.0625 2.3125 C51.32319641 4.43774414 51.32319641 4.43774414 51.3371582 7.09765625 C51.35145622 8.58930298 51.35145622 8.58930298 51.36604309 10.11108398 C51.36513168 11.18817627 51.36422028 12.26526855 51.36328125 13.375 C51.36756638 14.477229 51.3718515 15.57945801 51.37626648 16.71508789 C51.38201699 19.04865837 51.38250477 21.38224677 51.37817383 23.71582031 C51.37501294 27.29783498 51.39846815 30.87902499 51.42382812 34.4609375 C51.42610084 36.72395729 51.42680475 38.9869793 51.42578125 41.25 C51.434991 42.32709229 51.44420074 43.40418457 51.45368958 44.51391602 C51.44746078 45.50834717 51.44123199 46.50277832 51.43481445 47.52734375 C51.43544388 48.40511475 51.4360733 49.28288574 51.4367218 50.18725586 C51.25148201 51.23925171 51.25148201 51.23925171 51.0625 52.3125 C48.0625 54.3125 48.0625 54.3125 44.4375 54 C41.0625 53.3125 41.0625 53.3125 40.0625 52.3125 C39.90246512 49.64823315 39.80307111 47.00689572 39.74609375 44.33984375 C39.72531265 43.54220108 39.70453156 42.74455841 39.68312073 41.92274475 C39.61753842 39.36525389 39.55870033 36.8076572 39.5 34.25 C39.45682301 32.52017118 39.41320899 30.79035321 39.36914062 29.06054688 C39.26184828 24.8113074 39.16060574 20.5619611 39.0625 16.3125 C38.67916504 17.42810303 38.29583008 18.54370605 37.90087891 19.69311523 C36.48070829 23.8198821 35.05092329 27.94326241 33.61816406 32.06567383 C32.99865902 33.85252008 32.38178768 35.64028165 31.76757812 37.42895508 C30.88577165 39.9954386 29.99463719 42.55851303 29.1015625 45.12109375 C28.82752594 45.9252623 28.55348938 46.72943085 28.27114868 47.55796814 C26.29024341 53.19862829 26.29024341 53.19862829 24.0625 54.3125 C20.67799825 54.68038063 18.808087 54.87718576 16.04199219 52.78222656 C13.50400531 49.61569039 12.42868864 46.30754336 11.265625 42.484375 C11.0271283 41.73536926 10.78863159 40.98636353 10.54290771 40.21466064 C9.78780632 37.83409465 9.04997167 35.44857924 8.3125 33.0625 C7.8019135 31.44235107 7.2902068 29.82255472 6.77734375 28.203125 C5.52605275 24.24354897 4.29021362 20.2794467 3.0625 16.3125 C3.04791748 17.39257324 3.03333496 18.47264648 3.01831055 19.58544922 C2.96042454 23.58513838 2.88319227 27.58425876 2.80004883 31.58349609 C2.76675357 33.31582421 2.73873603 35.048262 2.71606445 36.78076172 C2.68260193 39.26838007 2.63029342 41.75498904 2.57421875 44.2421875 C2.56463387 45.40788773 2.56463387 45.40788773 2.55485535 46.59713745 C2.49487305 48.78076172 2.49487305 48.78076172 2.0625 52.3125 C-2.1170645 55.09887633 -4.08418677 54.10812512 -8.9375 53.3125 C-8.98808332 46.0859678 -9.02318412 38.85948101 -9.04736328 31.6328125 C-9.05743983 29.17283421 -9.07110131 26.71286794 -9.08837891 24.25292969 C-9.11255461 20.72327715 -9.1239664 17.19378253 -9.1328125 13.6640625 C-9.14313507 12.55882233 -9.15345764 11.45358215 -9.16409302 10.31484985 C-9.16424408 9.29394257 -9.16439514 8.27303528 -9.16455078 7.22119141 C-9.168992 6.31962311 -9.17343323 5.41805481 -9.17800903 4.48916626 C-8.58903695 -0.8411768 -4.34377105 0.01344821 0 0 Z " fill="#000000" transform="translate(1090.9375,276.6875)"/>
<path d="M0 0 C1.60865574 1.60865574 1.13539145 3.33868527 1.14526367 5.56396484 C1.15164352 6.53522308 1.15802338 7.50648132 1.16459656 8.50717163 C1.16570938 9.56441437 1.1668222 10.6216571 1.16796875 11.7109375 C1.17296135 13.32955185 1.17296135 13.32955185 1.17805481 14.98086548 C1.18312921 17.26914034 1.18546298 19.55742264 1.18530273 21.84570312 C1.1874863 25.35298848 1.20562873 28.859958 1.22460938 32.3671875 C1.22754372 34.58593642 1.22952824 36.80468684 1.23046875 39.0234375 C1.23765427 40.07663177 1.24483978 41.12982605 1.25224304 42.2149353 C1.24916641 43.19249786 1.24608978 44.17006042 1.24291992 45.17724609 C1.24434494 46.03804779 1.24576996 46.89884949 1.24723816 47.78573608 C1 50 1 50 -1 53 C-3.4609375 53.46875 -3.4609375 53.46875 -6.375 53.5 C-7.80972656 53.54640625 -7.80972656 53.54640625 -9.2734375 53.59375 C-13.0862573 52.76345113 -13.90974411 51.25006661 -16 48 C-17.33623702 45.53416056 -18.59887702 43.08614371 -19.8125 40.5625 C-20.44373662 39.27200146 -21.07526006 37.98164318 -21.70703125 36.69140625 C-22.46371094 35.14324219 -23.22039062 33.59507812 -24 32 C-26.31 27.38 -28.62 22.76 -31 18 C-31.33 29.55 -31.66 41.1 -32 53 C-39 54 -39 54 -42 53 C-42.02529174 45.77344508 -42.04284219 38.5469015 -42.05493164 31.3203125 C-42.05996989 28.86034722 -42.0668006 26.40038495 -42.07543945 23.94042969 C-42.08752723 20.41079975 -42.09323329 16.88120931 -42.09765625 13.3515625 C-42.10281754 12.24632233 -42.10797882 11.14108215 -42.11329651 10.00234985 C-42.11337204 8.98144257 -42.11344757 7.96053528 -42.11352539 6.90869141 C-42.115746 6.00712311 -42.11796661 5.10555481 -42.12025452 4.17666626 C-42 2 -42 2 -41 0 C-38.94217944 -0.21692984 -36.87773787 -0.37163893 -34.8125 -0.5 C-33.08966797 -0.63921875 -33.08966797 -0.63921875 -31.33203125 -0.78125 C-27.62972952 0.08681606 -27.36112095 0.34121918 -25.4296875 3.36328125 C-24.59573808 4.8960093 -23.7875905 6.44294249 -23 8 C-22.31442017 9.26046143 -22.31442017 9.26046143 -21.61499023 10.54638672 C-20.15079814 13.24526904 -18.72784512 15.96271993 -17.3125 18.6875 C-16.82716797 19.61111328 -16.34183594 20.53472656 -15.84179688 21.48632812 C-13.6785619 25.63078797 -11.74164969 29.64587578 -10 34 C-9.67 22.78 -9.34 11.56 -9 0 C-5.90842747 -1.54578627 -3.31526981 -0.60277633 0 0 Z " fill="#000000" transform="translate(1886,277)"/>
<path d="M0 0 C1.60865574 1.60865574 1.13539145 3.33868527 1.14526367 5.56396484 C1.15164352 6.53522308 1.15802338 7.50648132 1.16459656 8.50717163 C1.16570938 9.56441437 1.1668222 10.6216571 1.16796875 11.7109375 C1.17296135 13.32955185 1.17296135 13.32955185 1.17805481 14.98086548 C1.18312921 17.26914034 1.18546298 19.55742264 1.18530273 21.84570312 C1.1874863 25.35298848 1.20562873 28.859958 1.22460938 32.3671875 C1.22754372 34.58593642 1.22952824 36.80468684 1.23046875 39.0234375 C1.23765427 40.07663177 1.24483978 41.12982605 1.25224304 42.2149353 C1.24916641 43.19249786 1.24608978 44.17006042 1.24291992 45.17724609 C1.24434494 46.03804779 1.24576996 46.89884949 1.24723816 47.78573608 C1 50 1 50 -1 53 C-3.4609375 53.46875 -3.4609375 53.46875 -6.375 53.5 C-7.80972656 53.54640625 -7.80972656 53.54640625 -9.2734375 53.59375 C-13.0862573 52.76345113 -13.90974411 51.25006661 -16 48 C-17.33623702 45.53416056 -18.59887702 43.08614371 -19.8125 40.5625 C-20.44373662 39.27200146 -21.07526006 37.98164318 -21.70703125 36.69140625 C-22.46371094 35.14324219 -23.22039062 33.59507812 -24 32 C-26.31 27.38 -28.62 22.76 -31 18 C-31.33 29.55 -31.66 41.1 -32 53 C-39 54 -39 54 -42 53 C-42.02529174 45.77344508 -42.04284219 38.5469015 -42.05493164 31.3203125 C-42.05996989 28.86034722 -42.0668006 26.40038495 -42.07543945 23.94042969 C-42.08752723 20.41079975 -42.09323329 16.88120931 -42.09765625 13.3515625 C-42.10281754 12.24632233 -42.10797882 11.14108215 -42.11329651 10.00234985 C-42.11337204 8.98144257 -42.11344757 7.96053528 -42.11352539 6.90869141 C-42.115746 6.00712311 -42.11796661 5.10555481 -42.12025452 4.17666626 C-42 2 -42 2 -41 0 C-38.94217944 -0.21692984 -36.87773787 -0.37163893 -34.8125 -0.5 C-33.08966797 -0.63921875 -33.08966797 -0.63921875 -31.33203125 -0.78125 C-27.62972952 0.08681606 -27.36112095 0.34121918 -25.4296875 3.36328125 C-24.59573808 4.8960093 -23.7875905 6.44294249 -23 8 C-22.31442017 9.26046143 -22.31442017 9.26046143 -21.61499023 10.54638672 C-20.15079814 13.24526904 -18.72784512 15.96271993 -17.3125 18.6875 C-16.82716797 19.61111328 -16.34183594 20.53472656 -15.84179688 21.48632812 C-13.6785619 25.63078797 -11.74164969 29.64587578 -10 34 C-9.67 22.78 -9.34 11.56 -9 0 C-5.90842747 -1.54578627 -3.31526981 -0.60277633 0 0 Z " fill="#000000" transform="translate(1406,277)"/>
<path d="M0 0 C1.60865574 1.60865574 1.13539145 3.33868527 1.14526367 5.56396484 C1.15164352 6.53522308 1.15802338 7.50648132 1.16459656 8.50717163 C1.16570938 9.56441437 1.1668222 10.6216571 1.16796875 11.7109375 C1.17296135 13.32955185 1.17296135 13.32955185 1.17805481 14.98086548 C1.18312921 17.26914034 1.18546298 19.55742264 1.18530273 21.84570312 C1.1874863 25.35298848 1.20562873 28.859958 1.22460938 32.3671875 C1.22754372 34.58593642 1.22952824 36.80468684 1.23046875 39.0234375 C1.23765427 40.07663177 1.24483978 41.12982605 1.25224304 42.2149353 C1.24916641 43.19249786 1.24608978 44.17006042 1.24291992 45.17724609 C1.24434494 46.03804779 1.24576996 46.89884949 1.24723816 47.78573608 C1 50 1 50 -1 53 C-3.4609375 53.46875 -3.4609375 53.46875 -6.375 53.5 C-7.80972656 53.54640625 -7.80972656 53.54640625 -9.2734375 53.59375 C-13.0862573 52.76345113 -13.90974411 51.25006661 -16 48 C-17.33623702 45.53416056 -18.59887702 43.08614371 -19.8125 40.5625 C-20.44373662 39.27200146 -21.07526006 37.98164318 -21.70703125 36.69140625 C-22.46371094 35.14324219 -23.22039063 33.59507812 -24 32 C-26.31 27.38 -28.62 22.76 -31 18 C-31.33 29.55 -31.66 41.1 -32 53 C-39 54 -39 54 -42 53 C-42.02529174 45.77344508 -42.04284219 38.5469015 -42.05493164 31.3203125 C-42.05996989 28.86034722 -42.0668006 26.40038495 -42.07543945 23.94042969 C-42.08752723 20.41079975 -42.09323329 16.88120931 -42.09765625 13.3515625 C-42.10281754 12.24632233 -42.10797882 11.14108215 -42.11329651 10.00234985 C-42.11337204 8.98144257 -42.11344757 7.96053528 -42.11352539 6.90869141 C-42.115746 6.00712311 -42.11796661 5.10555481 -42.12025452 4.17666626 C-42 2 -42 2 -41 0 C-38.94217944 -0.21692984 -36.87773787 -0.37163893 -34.8125 -0.5 C-33.08966797 -0.63921875 -33.08966797 -0.63921875 -31.33203125 -0.78125 C-27.62972952 0.08681606 -27.36112095 0.34121918 -25.4296875 3.36328125 C-24.59573808 4.8960093 -23.7875905 6.44294249 -23 8 C-22.31442017 9.26046143 -22.31442017 9.26046143 -21.61499023 10.54638672 C-20.15079814 13.24526904 -18.72784512 15.96271993 -17.3125 18.6875 C-16.82716797 19.61111328 -16.34183594 20.53472656 -15.84179688 21.48632812 C-13.6785619 25.63078797 -11.74164969 29.64587578 -10 34 C-9.67 22.78 -9.34 11.56 -9 0 C-5.90842747 -1.54578627 -3.31526981 -0.60277633 0 0 Z " fill="#000000" transform="translate(840,277)"/>
<path d="M0 0 C1.60865574 1.60865574 1.13539145 3.33868527 1.14526367 5.56396484 C1.15164352 6.53522308 1.15802338 7.50648132 1.16459656 8.50717163 C1.16570938 9.56441437 1.1668222 10.6216571 1.16796875 11.7109375 C1.17296135 13.32955185 1.17296135 13.32955185 1.17805481 14.98086548 C1.18312921 17.26914034 1.18546298 19.55742264 1.18530273 21.84570312 C1.1874863 25.35298848 1.20562873 28.859958 1.22460938 32.3671875 C1.22754372 34.58593642 1.22952824 36.80468684 1.23046875 39.0234375 C1.23765427 40.07663177 1.24483978 41.12982605 1.25224304 42.2149353 C1.24916641 43.19249786 1.24608978 44.17006042 1.24291992 45.17724609 C1.24434494 46.03804779 1.24576996 46.89884949 1.24723816 47.78573608 C1 50 1 50 -1 53 C-3.4609375 53.46875 -3.4609375 53.46875 -6.375 53.5 C-7.80972656 53.54640625 -7.80972656 53.54640625 -9.2734375 53.59375 C-13.0862573 52.76345113 -13.90974411 51.25006661 -16 48 C-17.33623702 45.53416056 -18.59887702 43.08614371 -19.8125 40.5625 C-20.44373662 39.27200146 -21.07526006 37.98164318 -21.70703125 36.69140625 C-22.46371094 35.14324219 -23.22039062 33.59507812 -24 32 C-26.31 27.38 -28.62 22.76 -31 18 C-31.33 29.55 -31.66 41.1 -32 53 C-39 54 -39 54 -42 53 C-42.02529174 45.77344508 -42.04284219 38.5469015 -42.05493164 31.3203125 C-42.05996989 28.86034722 -42.0668006 26.40038495 -42.07543945 23.94042969 C-42.08752723 20.41079975 -42.09323329 16.88120931 -42.09765625 13.3515625 C-42.10281754 12.24632233 -42.10797882 11.14108215 -42.11329651 10.00234985 C-42.11337204 8.98144257 -42.11344757 7.96053528 -42.11352539 6.90869141 C-42.115746 6.00712311 -42.11796661 5.10555481 -42.12025452 4.17666626 C-42 2 -42 2 -41 0 C-38.94217944 -0.21692984 -36.87773787 -0.37163893 -34.8125 -0.5 C-33.08966797 -0.63921875 -33.08966797 -0.63921875 -31.33203125 -0.78125 C-27.62972952 0.08681606 -27.36112095 0.34121918 -25.4296875 3.36328125 C-24.59573808 4.8960093 -23.7875905 6.44294249 -23 8 C-22.31442017 9.26046143 -22.31442017 9.26046143 -21.61499023 10.54638672 C-20.15079814 13.24526904 -18.72784512 15.96271993 -17.3125 18.6875 C-16.82716797 19.61111328 -16.34183594 20.53472656 -15.84179688 21.48632812 C-13.6785619 25.63078797 -11.74164969 29.64587578 -10 34 C-9.67 22.78 -9.34 11.56 -9 0 C-5.90842747 -1.54578627 -3.31526981 -0.60277633 0 0 Z " fill="#000000" transform="translate(518,277)"/>
<path d="M0 0 C6.26474979 3.94951617 10.14760585 8.59808912 11.875 15.8125 C12.92055974 25.31498712 13.5524296 36.65218336 7.875 44.8125 C3.14462659 50.0662759 -1.44459506 53.45806011 -8.61328125 54.1484375 C-17.01799662 54.2342875 -23.4090595 54.09393812 -29.86328125 48.234375 C-36.85371863 40.82684709 -36.65811982 31.83167979 -36.4296875 22.2109375 C-36.0321532 14.46723225 -33.90208902 9.11658924 -28.1875 3.8125 C-20.77810942 -2.31534588 -9.00060665 -3.50466099 0 0 Z M-20.125 10.8125 C-25.05953423 17.11773818 -25.81221776 23.01994141 -25.125 30.8125 C-23.94341966 37.31140211 -23.94341966 37.31140211 -20.26171875 42.55078125 C-16.19284724 44.95342384 -11.93580604 45.22404683 -7.375 44.1875 C-3.64569003 41.90847724 -1.73498009 39.09345819 0.125 35.1875 C1.90029813 27.1986584 1.5456133 19.21756336 -2.125 11.8125 C-4.49927871 8.89031082 -6.9700703 8.5213443 -10.5625 7.9375 C-14.68505095 7.61986083 -16.93185963 7.98428996 -20.125 10.8125 Z " fill="#000000" transform="translate(1795.125,277.1875)"/>
<path d="M0 0 C6.26474979 3.94951617 10.14760585 8.59808912 11.875 15.8125 C12.92055974 25.31498712 13.5524296 36.65218336 7.875 44.8125 C3.14462659 50.0662759 -1.44459506 53.45806011 -8.61328125 54.1484375 C-17.01799662 54.2342875 -23.4090595 54.09393812 -29.86328125 48.234375 C-36.85371863 40.82684709 -36.65811982 31.83167979 -36.4296875 22.2109375 C-36.0321532 14.46723225 -33.90208902 9.11658924 -28.1875 3.8125 C-20.77810942 -2.31534588 -9.00060665 -3.50466099 0 0 Z M-20.125 10.8125 C-25.05953423 17.11773818 -25.81221776 23.01994141 -25.125 30.8125 C-23.94341966 37.31140211 -23.94341966 37.31140211 -20.26171875 42.55078125 C-16.19284724 44.95342384 -11.93580604 45.22404683 -7.375 44.1875 C-3.64569003 41.90847724 -1.73498009 39.09345819 0.125 35.1875 C1.90029813 27.1986584 1.5456133 19.21756336 -2.125 11.8125 C-4.49927871 8.89031082 -6.9700703 8.5213443 -10.5625 7.9375 C-14.68505095 7.61986083 -16.93185963 7.98428996 -20.125 10.8125 Z " fill="#000000" transform="translate(1033.125,277.1875)"/>
<path d="M0 0 C0.66 0.33 1.32 0.66 2 1 C2.01458252 2.09465576 2.02916504 3.18931152 2.04418945 4.31713867 C2.10228739 8.38956905 2.17951927 12.46145315 2.26245117 16.53344727 C2.29564654 18.29377355 2.32369524 20.05420488 2.34643555 21.81469727 C2.3800812 24.34957525 2.4324006 26.88349523 2.48828125 29.41796875 C2.49467117 30.20149216 2.5010611 30.98501556 2.50764465 31.7922821 C2.62964626 36.35568839 3.19508274 39.35547433 6 43 C8.71437679 45.13272462 10.04826833 44.99745956 13.5625 44.8125 C16.89475039 44.02487718 18.05370761 43.70318387 20 41 C21.63657754 37.72684491 21.2430807 34.09377769 21.31640625 30.4921875 C21.33718735 29.65156769 21.35796844 28.81094788 21.37937927 27.94485474 C21.44485439 25.25498765 21.5037502 22.56502157 21.5625 19.875 C21.60568716 18.05337511 21.64930152 16.23176029 21.69335938 14.41015625 C21.80053368 9.94020606 21.90180685 5.47015614 22 1 C23.45736087 0.80508548 24.91594593 0.61930642 26.375 0.4375 C27.18710938 0.33308594 27.99921875 0.22867187 28.8359375 0.12109375 C31 0 31 0 33 1 C33.09938156 6.55007795 33.1717096 12.09963018 33.21972656 17.65039062 C33.23975767 19.53589916 33.26699073 21.42134623 33.30175781 23.30664062 C33.35065272 26.02749862 33.37305382 28.74753056 33.390625 31.46875 C33.41127014 32.30241089 33.43191528 33.13607178 33.45318604 33.99499512 C33.45537983 39.8056182 32.24541656 44.13809174 29 49 C23.94837759 53.92209363 19.15086739 55.29822638 12.1875 55.375 C4.64959814 55.25660364 -0.04274396 53.95725604 -5.375 48.625 C-8.97820305 42.80444123 -9.27869392 37.52347166 -9.1953125 30.8828125 C-9.1924826 30.02565643 -9.18965271 29.16850037 -9.18673706 28.28536987 C-9.17559999 25.56510068 -9.1505076 22.84516859 -9.125 20.125 C-9.11496182 18.27344228 -9.10583744 16.42187936 -9.09765625 14.5703125 C-9.07568188 10.0467464 -9.041197 5.52343023 -9 1 C-6.01405576 -0.49297212 -3.29146376 -0.11755228 0 0 Z " fill="#000000" transform="translate(1290,276)"/>
<path d="M0 0 C0.87527344 -0.01417969 1.75054688 -0.02835937 2.65234375 -0.04296875 C5.0625 0.1875 5.0625 0.1875 8.0625 2.1875 C8.98599243 4.08927917 8.98599243 4.08927917 9.76416016 6.43432617 C10.06101715 7.31251511 10.35787415 8.19070404 10.66372681 9.09550476 C11.12795547 10.52356194 11.12795547 10.52356194 11.6015625 11.98046875 C12.09104874 13.44955437 12.09104874 13.44955437 12.59042358 14.94831848 C13.27947738 17.02386887 13.96339304 19.10113099 14.64257812 21.17993164 C15.67894336 24.34883629 16.73259465 27.5115762 17.7890625 30.67382812 C18.45676848 32.69236484 19.12346775 34.71123489 19.7890625 36.73046875 C20.10259674 37.67238571 20.41613098 38.61430267 20.73916626 39.58476257 C22.32632779 44.46801701 23.53207699 49.07658939 24.0625 54.1875 C21.04381566 55.69684217 18.38952771 55.36260672 15.0625 55.1875 C10.31654368 52.02352912 10.38891919 47.6195024 9.0625 42.1875 C2.7925 42.1875 -3.4775 42.1875 -9.9375 42.1875 C-10.2675 44.4975 -10.5975 46.8075 -10.9375 49.1875 C-11.875 52.0625 -11.875 52.0625 -12.9375 54.1875 C-15.67655345 55.55702673 -17.90837332 55.31371361 -20.9375 55.1875 C-21.5975 54.8575 -22.2575 54.5275 -22.9375 54.1875 C-22.36096487 47.62383241 -20.7282051 41.82845695 -18.62890625 35.59765625 C-18.30212387 34.61252548 -17.97534149 33.62739471 -17.63865662 32.6124115 C-16.95053405 30.54465813 -16.25866179 28.4781492 -15.56323242 26.4128418 C-14.49635582 23.2391595 -13.44571951 20.06041176 -12.39648438 16.88085938 C-11.72492094 14.86947002 -11.05242795 12.85839072 -10.37890625 10.84765625 C-10.06425919 9.8935939 -9.74961212 8.93953156 -9.4254303 7.95655823 C-9.12849777 7.08152145 -8.83156525 6.20648468 -8.52563477 5.30493164 C-8.2666188 4.53186172 -8.00760284 3.75879181 -7.74073792 2.96229553 C-6.18521428 -0.47471404 -3.38082278 0.02482249 0 0 Z M-0.9375 13.1875 C-2.9175 19.7875 -4.8975 26.3875 -6.9375 33.1875 C-2.6475 33.1875 1.6425 33.1875 6.0625 33.1875 C4.42123462 26.30981652 2.70964293 19.74233011 0.0625 13.1875 C-0.2675 13.1875 -0.5975 13.1875 -0.9375 13.1875 Z " fill="#000000" transform="translate(1587.9375,275.8125)"/>
<path d="M0 0 C1.43655854 -0.08131463 2.8744483 -0.13933559 4.3125 -0.1875 C5.51326172 -0.23970703 5.51326172 -0.23970703 6.73828125 -0.29296875 C9 0 9 0 10.5625 1.0625 C12.66946174 3.902318 14.16224682 7.01280809 15.6875 10.1875 C16.00783203 10.84169922 16.32816406 11.49589844 16.65820312 12.16992188 C17.44428292 13.77727907 18.22288683 15.38828858 19 17 C22.32313413 12.9031212 24.34520309 8.32192633 26.59765625 3.58203125 C28 1 28 1 30 0 C32.6723621 -0.13415472 35.32250488 -0.04318541 38 0 C39.00777749 2.62242137 39.10985849 3.71843162 38.07202148 6.37841797 C37.35381226 7.67223389 37.35381226 7.67223389 36.62109375 8.9921875 C36.11255859 9.94480469 35.60402344 10.89742188 35.08007812 11.87890625 C33.98741111 13.87195167 32.8884692 15.86157011 31.78320312 17.84765625 C28.77221971 23.18407819 28.77221971 23.18407819 28.33984375 29.08984375 C28.88769531 30.05019531 29.43554688 31.01054687 30 32 C30.79490158 33.54524861 31.58910392 35.09085702 32.3828125 36.63671875 C33.75948191 39.18854509 35.14970611 41.73259036 36.54296875 44.27539062 C36.98511719 45.09587891 37.42726562 45.91636719 37.8828125 46.76171875 C38.28902832 47.50381592 38.69524414 48.24591309 39.11376953 49.01049805 C40 51 40 51 40 54 C37.01002175 55.49498913 34.29957225 55.11577446 31 55 C28 54 28 54 26.83325195 52.23413086 C26.47191162 51.48526611 26.11057129 50.73640137 25.73828125 49.96484375 C25.34189453 49.15595703 24.94550781 48.34707031 24.53710938 47.51367188 C23.93092773 46.2384668 23.93092773 46.2384668 23.3125 44.9375 C22.89677734 44.08349609 22.48105469 43.22949219 22.05273438 42.34960938 C21.02606515 40.23726695 20.00899792 38.12082567 19 36 C18.70754395 36.54003662 18.41508789 37.08007324 18.11376953 37.63647461 C16.78992607 40.07332331 15.45759307 42.50542587 14.125 44.9375 C13.66480469 45.78763672 13.20460938 46.63777344 12.73046875 47.51367188 C12.28574219 48.32255859 11.84101562 49.13144531 11.3828125 49.96484375 C10.97434082 50.7137085 10.56586914 51.46257324 10.14501953 52.23413086 C9 54 9 54 7 55 C0.46666667 55.23333333 0.46666667 55.23333333 -2 54 C-1.41111932 50.21945344 -0.32094278 47.39291434 1.5390625 44.05859375 C2.28542969 42.68864258 2.28542969 42.68864258 3.046875 41.29101562 C4.10244524 39.38236696 5.16237497 37.47612306 6.2265625 35.57226562 C6.7215625 34.66025391 7.2165625 33.74824219 7.7265625 32.80859375 C8.18627441 31.98157959 8.64598633 31.15456543 9.11962891 30.30249023 C10.15710865 27.5891038 10.05543553 26.66641514 9 24 C8.26583171 22.43925063 7.48828254 20.89852084 6.6796875 19.375 C6.00099609 18.06789063 6.00099609 18.06789063 5.30859375 16.734375 C4.35117474 14.9082352 3.38760064 13.08530951 2.41796875 11.265625 C1.74314453 9.95851563 1.74314453 9.95851563 1.0546875 8.625 C0.63687012 7.83351563 0.21905273 7.04203125 -0.21142578 6.2265625 C-1.11393191 3.67830989 -0.91840904 2.50047031 0 0 Z " fill="#000000" transform="translate(67,276)"/>
<path d="M0 0 C1.20970459 0.00523682 2.41940918 0.01047363 3.66577148 0.01586914 C4.97094727 0.0190918 6.27612305 0.02231445 7.62084961 0.02563477 C9.00952213 0.03399138 10.39819401 0.04245634 11.78686523 0.05102539 C13.17944179 0.05603873 14.57202005 0.06060193 15.96459961 0.06469727 C19.38456394 0.07653105 22.80444367 0.09301659 26.22436523 0.11352539 C27.34936523 6.86352539 27.34936523 6.86352539 26.22436523 9.11352539 C19.95436523 9.11352539 13.68436523 9.11352539 7.22436523 9.11352539 C7.22436523 13.07352539 7.22436523 17.03352539 7.22436523 21.11352539 C8.36776367 21.10192383 9.51116211 21.09032227 10.68920898 21.07836914 C12.18009278 21.06899251 13.67097832 21.05989218 15.16186523 21.05102539 C15.91661133 21.04264648 16.67135742 21.03426758 17.44897461 21.02563477 C19.37430837 21.01700098 21.29972104 21.06128206 23.22436523 21.11352539 C24.22436523 22.11352539 24.22436523 22.11352539 24.34936523 25.61352539 C24.22436523 29.11352539 24.22436523 29.11352539 23.22436523 30.11352539 C20.5278167 30.1867216 17.85745065 30.20595076 15.16186523 30.17602539 C14.40325195 30.17151367 13.64463867 30.16700195 12.86303711 30.16235352 C10.98344652 30.15053219 9.10389625 30.13259617 7.22436523 30.11352539 C7.22436523 34.73352539 7.22436523 39.35352539 7.22436523 44.11352539 C9.26430664 44.09612305 9.26430664 44.09612305 11.34545898 44.07836914 C13.11759304 44.06899277 14.88972856 44.05989241 16.66186523 44.05102539 C17.55969727 44.04264648 18.4575293 44.03426758 19.38256836 44.02563477 C20.23657227 44.02241211 21.09057617 44.01918945 21.97045898 44.01586914 C22.76121826 44.01063232 23.55197754 44.00539551 24.36669922 44 C26.22436523 44.11352539 26.22436523 44.11352539 27.22436523 45.11352539 C27.34936523 48.61352539 27.34936523 48.61352539 27.22436523 52.11352539 C25.36722467 53.97066596 22.29929474 53.2440122 19.81811523 53.24633789 C18.51745117 53.24762695 17.21678711 53.24891602 15.87670898 53.25024414 C15.19592285 53.24814941 14.51513672 53.24605469 13.8137207 53.24389648 C11.73308008 53.23854779 9.65265535 53.24384219 7.57202148 53.25024414 C5.62102539 53.24831055 5.62102539 53.24831055 3.63061523 53.24633789 C2.42727539 53.24520996 1.22393555 53.24408203 -0.01586914 53.24291992 C-2.77563477 53.11352539 -2.77563477 53.11352539 -3.77563477 52.11352539 C-3.87417899 50.52289229 -3.9036217 48.92791062 -3.9050293 47.33422852 C-3.90818146 46.31647339 -3.91133362 45.29871826 -3.9145813 44.25012207 C-3.91255707 43.14285767 -3.91053284 42.03559326 -3.90844727 40.89477539 C-3.90940399 39.76656372 -3.91036072 38.63835205 -3.91134644 37.47595215 C-3.91202844 35.08512313 -3.91017274 32.69429228 -3.90600586 30.3034668 C-3.90065792 26.62943388 -3.90595019 22.95552322 -3.91235352 19.28149414 C-3.91169274 16.96508762 -3.91041158 14.64868117 -3.90844727 12.33227539 C-3.91148361 10.67137878 -3.91148361 10.67137878 -3.9145813 8.97692871 C-3.91142914 7.95917358 -3.90827698 6.94141846 -3.9050293 5.89282227 C-3.9042337 4.99204956 -3.90343811 4.09127686 -3.90261841 3.16320801 C-3.7043862 -0.03652 -3.24512241 0.13272776 0 0 Z " fill="#000000" transform="translate(633.775634765625,276.886474609375)"/>
<path d="M0 0 C1.20970459 0.00523682 2.41940918 0.01047363 3.66577148 0.01586914 C4.97094727 0.0190918 6.27612305 0.02231445 7.62084961 0.02563477 C9.00952213 0.03399138 10.39819401 0.04245634 11.78686523 0.05102539 C13.17944179 0.05603873 14.57202005 0.06060193 15.96459961 0.06469727 C19.38456394 0.07653105 22.80444367 0.09301659 26.22436523 0.11352539 C27.34936523 6.86352539 27.34936523 6.86352539 26.22436523 9.11352539 C19.95436523 9.11352539 13.68436523 9.11352539 7.22436523 9.11352539 C7.22436523 13.07352539 7.22436523 17.03352539 7.22436523 21.11352539 C8.36776367 21.10192383 9.51116211 21.09032227 10.68920898 21.07836914 C12.18009278 21.06899251 13.67097832 21.05989218 15.16186523 21.05102539 C15.91661133 21.04264648 16.67135742 21.03426758 17.44897461 21.02563477 C19.37430837 21.01700098 21.29972104 21.06128206 23.22436523 21.11352539 C24.22436523 22.11352539 24.22436523 22.11352539 24.34936523 25.61352539 C24.22436523 29.11352539 24.22436523 29.11352539 23.22436523 30.11352539 C20.5278167 30.1867216 17.85745065 30.20595076 15.16186523 30.17602539 C14.40325195 30.17151367 13.64463867 30.16700195 12.86303711 30.16235352 C10.98344652 30.15053219 9.10389625 30.13259617 7.22436523 30.11352539 C7.22436523 34.73352539 7.22436523 39.35352539 7.22436523 44.11352539 C9.26430664 44.09612305 9.26430664 44.09612305 11.34545898 44.07836914 C13.11759304 44.06899277 14.88972856 44.05989241 16.66186523 44.05102539 C17.55969727 44.04264648 18.4575293 44.03426758 19.38256836 44.02563477 C20.23657227 44.02241211 21.09057617 44.01918945 21.97045898 44.01586914 C22.76121826 44.01063232 23.55197754 44.00539551 24.36669922 44 C26.22436523 44.11352539 26.22436523 44.11352539 27.22436523 45.11352539 C27.34936523 48.61352539 27.34936523 48.61352539 27.22436523 52.11352539 C25.36722467 53.97066596 22.29929474 53.2440122 19.81811523 53.24633789 C18.51745117 53.24762695 17.21678711 53.24891602 15.87670898 53.25024414 C15.19592285 53.24814941 14.51513672 53.24605469 13.8137207 53.24389648 C11.73308008 53.23854779 9.65265535 53.24384219 7.57202148 53.25024414 C5.62102539 53.24831055 5.62102539 53.24831055 3.63061523 53.24633789 C2.42727539 53.24520996 1.22393555 53.24408203 -0.01586914 53.24291992 C-2.77563477 53.11352539 -2.77563477 53.11352539 -3.77563477 52.11352539 C-3.87417899 50.52289229 -3.9036217 48.92791062 -3.9050293 47.33422852 C-3.90818146 46.31647339 -3.91133362 45.29871826 -3.9145813 44.25012207 C-3.91255707 43.14285767 -3.91053284 42.03559326 -3.90844727 40.89477539 C-3.90940399 39.76656372 -3.91036072 38.63835205 -3.91134644 37.47595215 C-3.91202844 35.08512313 -3.91017274 32.69429228 -3.90600586 30.3034668 C-3.90065792 26.62943388 -3.90595019 22.95552322 -3.91235352 19.28149414 C-3.91169274 16.96508762 -3.91041158 14.64868117 -3.90844727 12.33227539 C-3.91148361 10.67137878 -3.91148361 10.67137878 -3.9145813 8.97692871 C-3.91142914 7.95917358 -3.90827698 6.94141846 -3.9050293 5.89282227 C-3.9042337 4.99204956 -3.90343811 4.09127686 -3.90261841 3.16320801 C-3.7043862 -0.03652 -3.24512241 0.13272776 0 0 Z " fill="#000000" transform="translate(410.775634765625,276.886474609375)"/>
<path d="M0 0 C1.20970459 0.00523682 2.41940918 0.01047363 3.66577148 0.01586914 C4.97094727 0.0190918 6.27612305 0.02231445 7.62084961 0.02563477 C9.00952213 0.03399138 10.39819401 0.04245634 11.78686523 0.05102539 C13.17944179 0.05603873 14.57202005 0.06060193 15.96459961 0.06469727 C19.38456394 0.07653105 22.80444367 0.09301659 26.22436523 0.11352539 C27.34936523 6.86352539 27.34936523 6.86352539 26.22436523 9.11352539 C19.95436523 9.11352539 13.68436523 9.11352539 7.22436523 9.11352539 C7.22436523 13.07352539 7.22436523 17.03352539 7.22436523 21.11352539 C8.36776367 21.10192383 9.51116211 21.09032227 10.68920898 21.07836914 C12.18009278 21.06899251 13.67097832 21.05989218 15.16186523 21.05102539 C15.91661133 21.04264648 16.67135742 21.03426758 17.44897461 21.02563477 C19.37430837 21.01700098 21.29972104 21.06128206 23.22436523 21.11352539 C24.22436523 22.11352539 24.22436523 22.11352539 24.34936523 25.61352539 C24.22436523 29.11352539 24.22436523 29.11352539 23.22436523 30.11352539 C20.5278167 30.1867216 17.85745065 30.20595076 15.16186523 30.17602539 C14.40325195 30.17151367 13.64463867 30.16700195 12.86303711 30.16235352 C10.98344652 30.15053219 9.10389625 30.13259617 7.22436523 30.11352539 C7.22436523 34.73352539 7.22436523 39.35352539 7.22436523 44.11352539 C9.26430664 44.09612305 9.26430664 44.09612305 11.34545898 44.07836914 C13.11759304 44.06899277 14.88972856 44.05989241 16.66186523 44.05102539 C17.55969727 44.04264648 18.4575293 44.03426758 19.38256836 44.02563477 C20.23657227 44.02241211 21.09057617 44.01918945 21.97045898 44.01586914 C22.76121826 44.01063232 23.55197754 44.00539551 24.36669922 44 C26.22436523 44.11352539 26.22436523 44.11352539 27.22436523 45.11352539 C27.34936523 48.61352539 27.34936523 48.61352539 27.22436523 52.11352539 C25.36722467 53.97066596 22.29929474 53.2440122 19.81811523 53.24633789 C18.51745117 53.24762695 17.21678711 53.24891602 15.87670898 53.25024414 C15.19592285 53.24814941 14.51513672 53.24605469 13.8137207 53.24389648 C11.73308008 53.23854779 9.65265535 53.24384219 7.57202148 53.25024414 C5.62102539 53.24831055 5.62102539 53.24831055 3.63061523 53.24633789 C2.42727539 53.24520996 1.22393555 53.24408203 -0.01586914 53.24291992 C-2.77563477 53.11352539 -2.77563477 53.11352539 -3.77563477 52.11352539 C-3.87417899 50.52289229 -3.9036217 48.92791062 -3.9050293 47.33422852 C-3.90818146 46.31647339 -3.91133362 45.29871826 -3.9145813 44.25012207 C-3.91255707 43.14285767 -3.91053284 42.03559326 -3.90844727 40.89477539 C-3.90940399 39.76656372 -3.91036072 38.63835205 -3.91134644 37.47595215 C-3.91202844 35.08512313 -3.91017274 32.69429228 -3.90600586 30.3034668 C-3.90065792 26.62943388 -3.90595019 22.95552322 -3.91235352 19.28149414 C-3.91169274 16.96508762 -3.91041158 14.64868117 -3.90844727 12.33227539 C-3.91148361 10.67137878 -3.91148361 10.67137878 -3.9145813 8.97692871 C-3.91142914 7.95917358 -3.90827698 6.94141846 -3.9050293 5.89282227 C-3.9042337 4.99204956 -3.90343811 4.09127686 -3.90261841 3.16320801 C-3.7043862 -0.03652 -3.24512241 0.13272776 0 0 Z " fill="#000000" transform="translate(215.775634765625,276.886474609375)"/>
<path d="M0 0 C1.20970459 0.00523682 2.41940918 0.01047363 3.66577148 0.01586914 C4.97094727 0.0190918 6.27612305 0.02231445 7.62084961 0.02563477 C9.00952213 0.03399138 10.39819401 0.04245634 11.78686523 0.05102539 C13.17944179 0.05603873 14.57202005 0.06060193 15.96459961 0.06469727 C19.38456394 0.07653105 22.80444367 0.09301659 26.22436523 0.11352539 C27.34936523 6.86352539 27.34936523 6.86352539 26.22436523 9.11352539 C19.95436523 9.11352539 13.68436523 9.11352539 7.22436523 9.11352539 C7.22436523 13.07352539 7.22436523 17.03352539 7.22436523 21.11352539 C8.36776367 21.10192383 9.51116211 21.09032227 10.68920898 21.07836914 C12.18009278 21.06899251 13.67097832 21.05989218 15.16186523 21.05102539 C15.91661133 21.04264648 16.67135742 21.03426758 17.44897461 21.02563477 C19.37430837 21.01700098 21.29972104 21.06128206 23.22436523 21.11352539 C24.22436523 22.11352539 24.22436523 22.11352539 24.34936523 25.61352539 C24.22436523 29.11352539 24.22436523 29.11352539 23.22436523 30.11352539 C20.5278167 30.1867216 17.85745065 30.20595076 15.16186523 30.17602539 C14.40325195 30.17151367 13.64463867 30.16700195 12.86303711 30.16235352 C10.98344652 30.15053219 9.10389625 30.13259617 7.22436523 30.11352539 C7.22436523 34.73352539 7.22436523 39.35352539 7.22436523 44.11352539 C9.26430664 44.09612305 9.26430664 44.09612305 11.34545898 44.07836914 C13.11759304 44.06899277 14.88972856 44.05989241 16.66186523 44.05102539 C17.55969727 44.04264648 18.4575293 44.03426758 19.38256836 44.02563477 C20.23657227 44.02241211 21.09057617 44.01918945 21.97045898 44.01586914 C22.76121826 44.01063232 23.55197754 44.00539551 24.36669922 44 C26.22436523 44.11352539 26.22436523 44.11352539 27.22436523 45.11352539 C27.34936523 48.61352539 27.34936523 48.61352539 27.22436523 52.11352539 C25.36722467 53.97066596 22.29929474 53.2440122 19.81811523 53.24633789 C18.51745117 53.24762695 17.21678711 53.24891602 15.87670898 53.25024414 C15.19592285 53.24814941 14.51513672 53.24605469 13.8137207 53.24389648 C11.73308008 53.23854779 9.65265535 53.24384219 7.57202148 53.25024414 C5.62102539 53.24831055 5.62102539 53.24831055 3.63061523 53.24633789 C2.42727539 53.24520996 1.22393555 53.24408203 -0.01586914 53.24291992 C-2.77563477 53.11352539 -2.77563477 53.11352539 -3.77563477 52.11352539 C-3.87417899 50.52289229 -3.9036217 48.92791062 -3.9050293 47.33422852 C-3.90818146 46.31647339 -3.91133362 45.29871826 -3.9145813 44.25012207 C-3.91255707 43.14285767 -3.91053284 42.03559326 -3.90844727 40.89477539 C-3.90940399 39.76656372 -3.91036072 38.63835205 -3.91134644 37.47595215 C-3.91202844 35.08512313 -3.91017274 32.69429228 -3.90600586 30.3034668 C-3.90065792 26.62943388 -3.90595019 22.95552322 -3.91235352 19.28149414 C-3.91169274 16.96508762 -3.91041158 14.64868117 -3.90844727 12.33227539 C-3.91148361 10.67137878 -3.91148361 10.67137878 -3.9145813 8.97692871 C-3.91142914 7.95917358 -3.90827698 6.94141846 -3.9050293 5.89282227 C-3.9042337 4.99204956 -3.90343811 4.09127686 -3.90261841 3.16320801 C-3.7043862 -0.03652 -3.24512241 0.13272776 0 0 Z " fill="#000000" transform="translate(4.775634765625,276.886474609375)"/>
<path d="M0 0 C2.75 2.125 2.75 2.125 3.75 4.125 C3.98076923 9.66346154 3.98076923 9.66346154 2.75 12.125 C0.60475221 11.66530404 -1.15181286 11.17954841 -3.078125 10.109375 C-6.97838409 8.34163167 -11.06242919 8.55967794 -15.25 9.125 C-18.77303093 11.50304588 -19.9598354 14.15107529 -21.25 18.125 C-21.46447731 20.81850073 -21.57498534 23.37315841 -21.5625 26.0625 C-21.57861328 26.75279297 -21.59472656 27.44308594 -21.61132812 28.15429688 C-21.6158115 32.8842545 -20.86023665 36.17134585 -18.25 40.125 C-14.31679746 42.91034956 -9.88739732 42.68857259 -5.25 42.125 C-3.22084231 41.18557514 -1.21124688 40.19901615 0.75 39.125 C1.74 39.455 2.73 39.785 3.75 40.125 C4.2371134 46.45747423 4.2371134 46.45747423 2.0625 49.4375 C-4.17234323 53.98725046 -10.79791995 53.84587836 -18.25 53.125 C-24.15150569 51.468437 -27.82668652 48.21106573 -31.25 43.125 C-35.88533333 34.65352874 -35.78632826 22.32788772 -33.1875 13.0625 C-30.70946202 7.07099972 -26.53652998 2.58837919 -21.125 -0.875 C-14.63496058 -3.12155211 -6.08227565 -3.35530496 0 0 Z " fill="#000000" transform="translate(1528.25,277.875)"/>
<path d="M0 0 C2.75 2.125 2.75 2.125 3.75 4.125 C3.98076923 9.66346154 3.98076923 9.66346154 2.75 12.125 C0.60475221 11.66530404 -1.15181286 11.17954841 -3.078125 10.109375 C-6.97838409 8.34163167 -11.06242919 8.55967794 -15.25 9.125 C-18.77303093 11.50304588 -19.9598354 14.15107529 -21.25 18.125 C-21.46447731 20.81850073 -21.57498534 23.37315841 -21.5625 26.0625 C-21.57861328 26.75279297 -21.59472656 27.44308594 -21.61132812 28.15429688 C-21.6158115 32.8842545 -20.86023665 36.17134585 -18.25 40.125 C-14.31679746 42.91034956 -9.88739732 42.68857259 -5.25 42.125 C-3.22084231 41.18557514 -1.21124688 40.19901615 0.75 39.125 C1.74 39.455 2.73 39.785 3.75 40.125 C4.2371134 46.45747423 4.2371134 46.45747423 2.0625 49.4375 C-4.17234323 53.98725046 -10.79791995 53.84587836 -18.25 53.125 C-24.15150569 51.468437 -27.82668652 48.21106573 -31.25 43.125 C-35.88533333 34.65352874 -35.78632826 22.32788772 -33.1875 13.0625 C-30.70946202 7.07099972 -26.53652998 2.58837919 -21.125 -0.875 C-14.63496058 -3.12155211 -6.08227565 -3.35530496 0 0 Z " fill="#000000" transform="translate(960.25,277.875)"/>
<path d="M0 0 C2.75 2.125 2.75 2.125 3.75 4.125 C3.98076923 9.66346154 3.98076923 9.66346154 2.75 12.125 C0.60475221 11.66530404 -1.15181286 11.17954841 -3.078125 10.109375 C-6.97838409 8.34163167 -11.06242919 8.55967794 -15.25 9.125 C-18.77303093 11.50304588 -19.9598354 14.15107529 -21.25 18.125 C-21.46447731 20.81850073 -21.57498534 23.37315841 -21.5625 26.0625 C-21.57861328 26.75279297 -21.59472656 27.44308594 -21.61132812 28.15429688 C-21.6158115 32.8842545 -20.86023665 36.17134585 -18.25 40.125 C-14.31679746 42.91034956 -9.88739732 42.68857259 -5.25 42.125 C-3.22084231 41.18557514 -1.21124688 40.19901615 0.75 39.125 C1.74 39.455 2.73 39.785 3.75 40.125 C4.2371134 46.45747423 4.2371134 46.45747423 2.0625 49.4375 C-4.17234323 53.98725046 -10.79791995 53.84587836 -18.25 53.125 C-24.15150569 51.468437 -27.82668652 48.21106573 -31.25 43.125 C-35.88533333 34.65352874 -35.78632826 22.32788772 -33.1875 13.0625 C-30.70946202 7.07099972 -26.53652998 2.58837919 -21.125 -0.875 C-14.63496058 -3.12155211 -6.08227565 -3.35530496 0 0 Z " fill="#000000" transform="translate(590.25,277.875)"/>
<path d="M0 0 C2.75 2.125 2.75 2.125 3.75 4.125 C3.98076923 9.66346154 3.98076923 9.66346154 2.75 12.125 C0.60475221 11.66530404 -1.15181286 11.17954841 -3.078125 10.109375 C-6.97838409 8.34163167 -11.06242919 8.55967794 -15.25 9.125 C-18.77303093 11.50304588 -19.9598354 14.15107529 -21.25 18.125 C-21.46447731 20.81850073 -21.57498534 23.37315841 -21.5625 26.0625 C-21.57861328 26.75279297 -21.59472656 27.44308594 -21.61132812 28.15429688 C-21.6158115 32.8842545 -20.86023665 36.17134585 -18.25 40.125 C-14.31679746 42.91034956 -9.88739732 42.68857259 -5.25 42.125 C-3.22084231 41.18557514 -1.21124688 40.19901615 0.75 39.125 C1.74 39.455 2.73 39.785 3.75 40.125 C4.2371134 46.45747423 4.2371134 46.45747423 2.0625 49.4375 C-4.17234323 53.98725046 -10.79791995 53.84587836 -18.25 53.125 C-24.15150569 51.468437 -27.82668652 48.21106573 -31.25 43.125 C-35.88533333 34.65352874 -35.78632826 22.32788772 -33.1875 13.0625 C-30.70946202 7.07099972 -26.53652998 2.58837919 -21.125 -0.875 C-14.63496058 -3.12155211 -6.08227565 -3.35530496 0 0 Z " fill="#000000" transform="translate(172.25,277.875)"/>
<path d="M0 0 C1.60279192 0.00015914 3.20558896 0.00585476 4.80834961 0.01586914 C5.65038437 0.01728409 6.49241913 0.01869904 7.35997009 0.02015686 C10.06024671 0.02577276 12.76044163 0.03832791 15.46069336 0.05102539 C17.28686404 0.05603834 19.11303602 0.06060161 20.93920898 0.06469727 C25.42556878 0.07574735 29.9118672 0.0930226 34.39819336 0.11352539 C35.31711452 3.78921003 35.35724192 5.27733114 34.39819336 9.11352539 C29.77819336 9.11352539 25.15819336 9.11352539 20.39819336 9.11352539 C20.39819336 23.63352539 20.39819336 38.15352539 20.39819336 53.11352539 C12.39819336 54.11352539 12.39819336 54.11352539 9.39819336 52.11352539 C9.03742981 50.24057007 9.03742981 50.24057007 9.05761719 47.93920898 C9.05784378 47.07846771 9.05807037 46.21772644 9.05830383 45.3309021 C9.08152962 43.93552719 9.08152962 43.93552719 9.10522461 42.51196289 C9.10946945 41.56036285 9.11371429 40.60876282 9.11808777 39.62832642 C9.1349144 36.58144125 9.17257382 33.53521148 9.21069336 30.48852539 C9.22573505 28.42603493 9.23942435 26.36353412 9.25170898 24.30102539 C9.28483097 19.23827189 9.33664052 14.17600985 9.39819336 9.11352539 C8.00793945 9.13092773 8.00793945 9.13092773 6.58959961 9.14868164 C5.39206055 9.15770508 4.19452148 9.16672852 2.96069336 9.17602539 C1.76573242 9.18762695 0.57077148 9.19922852 -0.66040039 9.21118164 C-3.60180664 9.11352539 -3.60180664 9.11352539 -4.60180664 8.11352539 C-4.72680664 4.61352539 -4.72680664 4.61352539 -4.60180664 1.11352539 C-3.60180664 0.11352539 -3.60180664 0.11352539 0 0 Z " fill="#000000" transform="translate(1640.601806640625,276.886474609375)"/>
<path d="M0 0 C0.66 0.33 1.32 0.66 2 1 C2 15.52 2 30.04 2 45 C7.61 45 13.22 45 19 45 C20 52 20 52 19 54 C14.52084672 54.02886338 10.04171709 54.04675187 5.5625 54.0625 C4.28310547 54.07087891 3.00371094 54.07925781 1.68554688 54.08789062 C0.47060547 54.09111328 -0.74433594 54.09433594 -1.99609375 54.09765625 C-3.12200928 54.10289307 -4.2479248 54.10812988 -5.40795898 54.11352539 C-8 54 -8 54 -9 53 C-9.09340434 51.37325222 -9.11745171 49.74245949 -9.11352539 48.11303711 C-9.11344986 47.07203354 -9.11337433 46.03102997 -9.11329651 44.95848083 C-9.10813522 43.8262056 -9.10297394 42.69393036 -9.09765625 41.52734375 C-9.0962413 40.37456436 -9.09482635 39.22178497 -9.09336853 38.03407288 C-9.08775005 34.33518936 -9.07519442 30.63636536 -9.0625 26.9375 C-9.05748738 24.43684983 -9.05292406 21.93619871 -9.04882812 19.43554688 C-9.03777462 13.29034412 -9.02101852 7.14517631 -9 1 C-5.77390955 -0.07536348 -3.37822416 -0.14375422 0 0 Z " fill="#000000" transform="translate(353,276)"/>
<path d="M0 0 C0.66 0.33 1.32 0.66 2 1 C2 15.52 2 30.04 2 45 C7.61 45 13.22 45 19 45 C20 52 20 52 19 54 C14.52084672 54.02886338 10.04171709 54.04675187 5.5625 54.0625 C4.28310547 54.07087891 3.00371094 54.07925781 1.68554688 54.08789062 C0.47060547 54.09111328 -0.74433594 54.09433594 -1.99609375 54.09765625 C-3.12200928 54.10289307 -4.2479248 54.10812988 -5.40795898 54.11352539 C-8 54 -8 54 -9 53 C-9.09340434 51.37325222 -9.11745171 49.74245949 -9.11352539 48.11303711 C-9.11344986 47.07203354 -9.11337433 46.03102997 -9.11329651 44.95848083 C-9.10813522 43.8262056 -9.10297394 42.69393036 -9.09765625 41.52734375 C-9.0962413 40.37456436 -9.09482635 39.22178497 -9.09336853 38.03407288 C-9.08775005 34.33518936 -9.07519442 30.63636536 -9.0625 26.9375 C-9.05748738 24.43684983 -9.05292406 21.93619871 -9.04882812 19.43554688 C-9.03777462 13.29034412 -9.02101852 7.14517631 -9 1 C-5.77390955 -0.07536348 -3.37822416 -0.14375422 0 0 Z " fill="#000000" transform="translate(289,276)"/>
<path d="M0 0 C0.66 0.33 1.32 0.66 2 1 C2 18.49 2 35.98 2 54 C-6 55 -6 55 -9 54 C-9 36.51 -9 19.02 -9 1 C-5.77390955 -0.07536348 -3.37822416 -0.14375422 0 0 Z " fill="#000000" transform="translate(1719,276)"/>
<path d="M0 0 C0.66 0.33 1.32 0.66 2 1 C2 18.49 2 35.98 2 54 C-6 55 -6 55 -9 54 C-9 36.51 -9 19.02 -9 1 C-5.77390955 -0.07536348 -3.37822416 -0.14375422 0 0 Z " fill="#000000" transform="translate(1454,276)"/>
<path d="M0 0 C0.66 0.33 1.32 0.66 2 1 C2 18.49 2 35.98 2 54 C-6 55 -6 55 -9 54 C-9 36.51 -9 19.02 -9 1 C-5.77390955 -0.07536348 -3.37822416 -0.14375422 0 0 Z " fill="#000000" transform="translate(756,276)"/>
</svg>
