<svg version="1.1" xmlns="http://www.w3.org/2000/svg" width="50" height="50" viewBox="0 0 256 256">
  <defs>
    <clipPath id="circleClip">
      <circle cx="128" cy="128" r="128" />
    </clipPath>
  </defs>

  <g clip-path="url(#circleClip)">
    
    <circle cx="128" cy="128" r="128" fill="white" />

    <path d="M0 0 C1.07362415 -0.00424107 1.07362415 -0.00424107 2.16893768 -0.00856781 C5.96679541 -0.02349184 9.7646159 -0.03276062 13.5625 -0.03710938 C16.65572055 -0.04146989 19.74865838 -0.05527618 22.84179688 -0.078125 C57.64129243 -0.33009261 94.96654048 1.09355062 121.734375 26.390625 C142.5914288 48.2965249 147.10908649 80.1519029 147.1875 109.21875 C147.19032738 109.93449944 147.19315475 110.65024887 147.19606781 111.38768768 C147.21099184 115.18554541 147.22026062 118.9833659 147.22460938 122.78125 C147.22896989 125.87447055 147.24277618 128.96740838 147.265625 132.06054688 C147.51759261 166.86004243 146.09394938 204.18529048 120.796875 230.953125 C98.8909751 251.8101788 67.0355971 256.32783649 37.96875 256.40625 C37.25300056 256.40907738 36.53725113 256.41190475 35.79981232 256.41481781 C32.00195459 256.42974184 28.2041341 256.43901062 24.40625 256.44335938 C21.31302945 256.44771989 18.22009162 256.46152618 15.12695312 256.484375 C-19.67254243 256.73634261 -56.99779048 255.31269938 -83.765625 230.015625 C-104.6226788 208.1097251 -109.14033649 176.2543471 -109.21875 147.1875 C-109.22157738 146.47175056 -109.22440475 145.75600113 -109.22731781 145.01856232 C-109.24224184 141.22070459 -109.25151062 137.4228841 -109.25585938 133.625 C-109.26021989 130.53177945 -109.27402618 127.43884162 -109.296875 124.34570312 C-109.54884261 89.54620757 -108.12519938 52.22095952 -82.828125 25.453125 C-60.9222251 4.5960712 -29.0668471 0.07841351 0 0 Z " fill="#00A944" transform="translate(109.015625,-0.203125)"/>
    <path d="M0 0 C69.22416667 0 69.22416667 0 85.78125 15.71875 C97.17766691 27.43619274 100.49749466 39.76257412 100.27734375 55.671875 C99.82440563 68.55244372 93.3443596 81.13752442 84 90 C77.31366997 95.54797635 70.12627353 99.03590843 62 102 C61.10748535 102.34748291 60.2149707 102.69496582 59.29541016 103.05297852 C55.52027552 104.13786126 52.33937204 104.22671498 48.4140625 104.1953125 C47.12967285 104.19031738 45.8452832 104.18532227 44.52197266 104.18017578 C42.09797119 104.15286377 42.09797119 104.15286377 39.625 104.125 C34.46875 104.08375 29.3125 104.0425 24 104 C24 114.56 24 125.12 24 136 C16.08 136 8.16 136 0 136 C0 91.12 0 46.24 0 0 Z " fill="#FDFDFD" transform="translate(87,60)"/>
    <path d="M0 0 C8.21582864 -0.09343813 16.43142851 -0.16413346 24.64766026 -0.20724869 C28.46443762 -0.22796108 32.28084664 -0.2559714 36.09741211 -0.30175781 C39.79331419 -0.34580984 43.48886618 -0.36925932 47.18501091 -0.37950897 C48.58216793 -0.38679567 49.97930982 -0.401018 51.37631416 -0.42292023 C70.2256696 -0.70618852 85.62750737 4.65334443 100 17 C100.90685547 17.76376953 100.90685547 17.76376953 101.83203125 18.54296875 C112.27255913 28.08792087 118.54321849 41.40001317 119.41015625 55.40625 C120.13148924 74.88385434 115.30386913 90.55184039 101.92578125 105.17578125 C98.2948361 108.61523639 94.1592611 111.24839969 90 114 C88.38935942 115.1456522 86.7787868 116.29140631 85.17089844 117.44091797 C72.40497763 126.48748663 59.87916305 132 44 132 C44 139.92 44 147.84 44 156 C39.71 156 35.42 156 31 156 C31 158.97 31 161.94 31 165 C16.48 165 1.96 165 -13 165 C-13 113.52 -13 62.04 -13 9 C-8.71 9 -4.42 9 0 9 C0 6.03 0 3.06 0 0 Z M10 10 C10 54.88 10 99.76 10 146 C17.92 146 25.84 146 34 146 C34 135.44 34 124.88 34 114 C41.425 114.185625 41.425 114.185625 49 114.375 C65.41839421 114.53362385 77.73126001 112.38050133 91 102 C92.03125 101.2575 93.0625 100.515 94.125 99.75 C104.08046125 90.22738489 110.11531562 77.29479392 110.43115234 63.52636719 C110.45342356 54.00456723 109.97469117 46.40053391 105 38 C104.54238281 37.195625 104.08476562 36.39125 103.61328125 35.5625 C94.93863686 21.49293979 82.56098758 14.66829627 67 10 C48.19 10 29.38 10 10 10 Z " fill="#262F32" transform="translate(77,50)"/>
    <path d="M0 0 C34.61764706 0 34.61764706 0 43.9609375 8.859375 C49.90791272 15.33329739 52.62777869 21.2272657 52.34765625 30.09375 C51.38719422 38.12278089 48.35061542 45.79223561 42 51 C27.34655059 60.37905833 20.54025718 58 0 58 C0 38.86 0 19.72 0 0 Z " fill="#293033" transform="translate(111,83)"/>
    <path d="M0 0 C6.64960712 0 8.98941348 1.06845237 14 5 C18.38438426 9.83406469 19.15400833 12.44681496 19.1875 18.9375 C19.20167969 20.18402344 19.21585938 21.43054688 19.23046875 22.71484375 C19 26 19 26 17 29 C14.03237603 29.22212754 11.33095985 29.28037029 8.375 29.1875 C5.61125 29.125625 2.8475 29.06375 0 29 C0 19.43 0 9.86 0 0 Z " fill="#00A844" transform="translate(121,102)"/>
  </g>
</svg>